<svg xmlns="http://www.w3.org/2000/svg" width="63.539" height="47.654" viewBox="0 0 63.539 47.654">
  <path id="delivery" d="M0,10.942A7.942,7.942,0,0,1,7.942,3H31.77a7.942,7.942,0,0,1,7.942,7.942h8.045a7.943,7.943,0,0,1,6.2,2.981l7.84,9.8a7.941,7.941,0,0,1,1.74,4.962v8.732A7.942,7.942,0,0,1,55.6,45.359h-.452a7.946,7.946,0,0,1-14.981,0H23.375a7.946,7.946,0,0,1-14.981,0H7.942A7.942,7.942,0,0,1,0,37.417ZM8.394,40.065a7.946,7.946,0,0,1,14.981,0H34.417V10.942A2.647,2.647,0,0,0,31.77,8.295H7.942a2.647,2.647,0,0,0-2.647,2.647V37.417a2.647,2.647,0,0,0,2.647,2.647Zm31.318,0V16.237h8.045a2.648,2.648,0,0,1,2.067.994l7.84,9.8a2.648,2.648,0,0,1,.58,1.654v8.732A2.647,2.647,0,0,1,55.6,40.065h-.452a7.946,7.946,0,0,0-14.981,0Zm-23.827,0a2.647,2.647,0,1,0,2.647,2.647A2.647,2.647,0,0,0,15.885,40.065Zm31.77,0A2.647,2.647,0,1,0,50.3,42.712,2.647,2.647,0,0,0,47.654,40.065Z" transform="translate(0 -3)" fill="#fff" fill-rule="evenodd"/>
</svg>
