<svg xmlns="http://www.w3.org/2000/svg" width="47.595" height="55.93" viewBox="0 0 47.595 55.93">
  <path id="planning" d="M-749.336-2789.116l-22.788-4.533a3.21,3.21,0,0,1-2.579-3.137v-4.139a36.262,36.262,0,0,0-3.085-14.408,21.12,21.12,0,0,1,10.777-27.857,21.118,21.118,0,0,1,27.856,10.777,20.909,20.909,0,0,1,1.88,8.72c0,.1,0,.695-.005,1.627a4.345,4.345,0,0,0,1.212,1.659c.211.208.554.538.932.9,1.356,1.3,1.876,1.813,2.092,2.077a4.914,4.914,0,0,1,.891,1.573,2.608,2.608,0,0,1-1.352,3.237,12.131,12.131,0,0,1-1.361.716c-.341.16-.685.308-1.029.456l-.044.019c-.547,3.608-1.411,9.3-1.465,9.664a5.112,5.112,0,0,1-1.508,3.318c-1.457,1.335-3.411,1.28-4.838,1.24-.221-.006-.437-.013-.639-.013q-.863,0-1.723,0c-.057.817-.125,1.858-.185,2.778-.074,1.125-.149,2.271-.211,3.166a2.372,2.372,0,0,1-2.363,2.205A2.376,2.376,0,0,1-749.336-2789.116Zm-9.347-52.385a17.814,17.814,0,0,0-14.666,8.141,17.815,17.815,0,0,0-1.4,16.716,39.551,39.551,0,0,1,3.355,15.719v4.051l21.663,4.309c.044-.661.092-1.381.139-2.093a38.922,38.922,0,0,1,.366-4.656l.333-1.215h1.471c1.013,0,2.022.006,3.039.006.234,0,.478.007.727.014.958.026,2.043.057,2.516-.376a2.079,2.079,0,0,0,.456-1.271l.005-.045c.013-.1,1.121-7.4,1.6-10.531l.068-.447.491-.6.142-.113a3.2,3.2,0,0,1,.886-.468c.037-.014.073-.027.106-.041l.188-.082c.312-.134.623-.267.946-.419.223-.1.473-.22.717-.355-.019-.026-.04-.051-.061-.078-.182-.209-1.211-1.2-1.825-1.788-.39-.375-.744-.716-.962-.931a6.682,6.682,0,0,1-2.177-3.6l-.022-.133v-.135c.006-1.015.006-1.666.006-1.771a17.8,17.8,0,0,0-5.316-12.7,17.8,17.8,0,0,0-12.484-5.111Zm-8.3,27.631a.928.928,0,0,1-.553-.848v-3.524h-1.126a.928.928,0,0,1-.928-.927v-7a7.933,7.933,0,0,1,7.923-7.923h7.073a7.924,7.924,0,0,1,7.923,7.923,7.923,7.923,0,0,1-7.923,7.923h-6.769l-4.621,4.208a.928.928,0,0,1-.625.242A.924.924,0,0,1-766.983-2813.871Zm13.374-12.333a1.53,1.53,0,0,0,1.529,1.53,1.53,1.53,0,0,0,1.529-1.53,1.53,1.53,0,0,0-1.529-1.529A1.53,1.53,0,0,0-753.609-2826.2Zm-6.052,0a1.53,1.53,0,0,0,.448,1.082,1.529,1.529,0,0,0,1.082.448,1.529,1.529,0,0,0,1.528-1.53,1.529,1.529,0,0,0-1.529-1.529A1.53,1.53,0,0,0-759.66-2826.2Zm-6.051,0a1.53,1.53,0,0,0,1.529,1.53,1.529,1.529,0,0,0,1.529-1.53,1.529,1.529,0,0,0-1.529-1.529A1.53,1.53,0,0,0-765.711-2826.2Z" transform="translate(779.597 2845)" fill="#fff"/>
</svg>
