<svg xmlns="http://www.w3.org/2000/svg" width="59.905" height="47.107" viewBox="0 0 59.905 47.107">
  <path id="quote" d="M566,372.437c1.892-2.462,3.843-3.558,5.885-3.273a4.879,4.879,0,0,1,4.128,3.273c.721,1.892.15,4.053-1.741,6.53a24.819,24.819,0,0,0-3.918,6.74,43.638,43.638,0,0,0-1.952,6.74,11.919,11.919,0,0,1,8.377,3.483,11.439,11.439,0,0,1,3.152,8.272,11.919,11.919,0,0,1-3.258,8.6,11.289,11.289,0,0,1-8.5,3.378,10.824,10.824,0,0,1-8.812-3.813q-3.152-3.813-3.152-10.989a54.794,54.794,0,0,1,2.072-14.366A39.362,39.362,0,0,1,566,372.437Zm36.134,0q2.822-3.693,5.87-3.273a4.879,4.879,0,0,1,4.128,3.273c.735,1.892.15,4.053-1.727,6.53a24.892,24.892,0,0,0-3.933,6.74,45.376,45.376,0,0,0-1.951,6.74,11.92,11.92,0,0,1,8.422,3.513,11.439,11.439,0,0,1,3.167,8.272,11.874,11.874,0,0,1-3.273,8.6,11.259,11.259,0,0,1-8.482,3.378,10.779,10.779,0,0,1-8.812-3.813q-3.168-3.813-3.168-10.989a54.793,54.793,0,0,1,2.072-14.367A39.407,39.407,0,0,1,602.131,372.437Z" transform="translate(-556.21 -369.121)" fill="#9b64ce"/>
</svg>
