<svg xmlns="http://www.w3.org/2000/svg" width="16.719" height="13.587" viewBox="0 0 16.719 13.587">
  <path id="twitter" d="M27.007,19.384A9.755,9.755,0,0,1,12,28.046a6.9,6.9,0,0,0,5.078-1.421,3.433,3.433,0,0,1-3.2-2.382,3.44,3.44,0,0,0,1.549-.058,3.434,3.434,0,0,1-2.751-3.407,3.413,3.413,0,0,0,1.554.428,3.433,3.433,0,0,1-1.061-4.579,9.737,9.737,0,0,0,7.069,3.584,3.432,3.432,0,0,1,5.845-3.129,6.859,6.859,0,0,0,2.178-.832,3.437,3.437,0,0,1-1.508,1.9,6.85,6.85,0,0,0,1.97-.54,6.963,6.963,0,0,1-1.711,1.775" transform="translate(-12 -16)" fill="#5b01ae" fill-rule="evenodd"/>
</svg>
