<svg xmlns="http://www.w3.org/2000/svg" width="16.475" height="11.67" viewBox="0 0 16.475 11.67">
  <path id="youtube" d="M18.536,26.987V22.325l4.451,2.339Zm9.774-5.47a3.607,3.607,0,0,0-.655-1.647,2.344,2.344,0,0,0-1.651-.7C23.7,19,20.241,19,20.241,19h-.007s-3.458,0-5.764.168a2.345,2.345,0,0,0-1.651.7,3.6,3.6,0,0,0-.654,1.647A25.274,25.274,0,0,0,12,24.2v1.259a25.261,25.261,0,0,0,.165,2.685,3.6,3.6,0,0,0,.654,1.647,2.78,2.78,0,0,0,1.817.709c1.318.128,5.6.167,5.6.167S23.7,30.664,26,30.5a2.348,2.348,0,0,0,1.651-.7,3.607,3.607,0,0,0,.655-1.647,25.261,25.261,0,0,0,.165-2.685V24.2a25.274,25.274,0,0,0-.165-2.685Z" transform="translate(-12 -19)" fill="#5b01ae" fill-rule="evenodd"/>
</svg>
