<svg xmlns="http://www.w3.org/2000/svg" xmlns:xlink="http://www.w3.org/1999/xlink" width="1009" height="174.852" viewBox="0 0 1009 174.852">
  <style>
      @keyframes background-file {  
        0% { 
          fill: #5B01AE;
        }

        15% {
          fill: #000000;
        }

        100% { 
          fill: #000000;
        }  
      }

      @keyframes background-brain {  
        0% { 
          fill: #5B01AE;
        }

        25% {
          fill: #5B01AE;
        }

        30% {
          fill: #000000;
        }

        100% { 
          fill: #000000;
        }  
      }

      @keyframes background-devolper {  
        0% { 
          fill: #5B01AE;
        }

        65% { 
          fill: #5B01AE;
        }

        70% {
          fill: #000000;
        }

        100% { 
          fill: #000000;
        }  
      }

      @keyframes background-delivery {  
        0% { 
          fill: #5B01AE;
        }

        95% { 
          fill: #5B01AE;
        }  

        100% { 
          fill: #000000;
        }  
      }

      #file-bg {
        animation: background-file 4s ease-in-out infinite;
        -webkit-animation: background-file 4s ease-in-out infinite;
        -webkit-transform-origin: center; -ms-transform-origin: center; transform-origin: center; transform-box: fill-box;
      }

      #brain-bg {
        animation: background-brain 4s ease-in-out infinite;
        -webkit-animation: background-brain 4s ease-in-out infinite;
        -webkit-transform-origin: center; -ms-transform-origin: center; transform-origin: center; transform-box: fill-box;
      } 

      #devolper-bg {
        animation: background-devolper 4s ease-in-out infinite;
        -webkit-animation: background-devolper 4s ease-in-out infinite;
        -webkit-transform-origin: center; -ms-transform-origin: center; transform-origin: center; transform-box: fill-box;
      }
      
      #delivery-bg {
        animation: background-delivery 4s ease-in-out infinite;
        -webkit-animation: background-delivery 4s ease-in-out infinite;
        -webkit-transform-origin: center; -ms-transform-origin: center; transform-origin: center; transform-box: fill-box;
      } 

  </style> 

  <defs>
    <clipPath id="clip-path">
      <rect id="Rectangle_175" data-name="Rectangle 175" width="66" height="66" transform="translate(-0.897 -0.897)" fill="#fff"/>
    </clipPath>
  </defs>
  <g id="our-work" transform="translate(-449.597 -2283.092)">
    <g id="file-bg">
      <path id="Path_1203" data-name="Path 1203" d="M57,0A57,57,0,1,1,0,57,57,57,0,0,1,57,0Z" transform="translate(449.597 2287)"/>
    </g>
    <g id="file">
      <g transform="translate(482.255 2317.471)">
        <path id="Path_187" data-name="Path 187" d="M28.611,1H9.985A6.985,6.985,0,0,0,3,7.985V45.237a6.985,6.985,0,0,0,6.985,6.985H37.924a6.985,6.985,0,0,0,6.985-6.985V17.3Z" transform="translate(0 0)" fill="none" stroke="#fff" stroke-linecap="round" stroke-linejoin="round" stroke-width="4"/>
        <path id="Path_188" data-name="Path 188" d="M14,10.313A6.985,6.985,0,0,0,20.985,17.3H30.3L14,1Z" transform="translate(14.611 0)" fill="none" stroke="#fff" stroke-linecap="round" stroke-linejoin="round" stroke-width="4"/>
        <path id="Path_1205" data-name="Path 1205" d="M0,0H8.514" transform="translate(15.294 29.175)" fill="none" stroke="#fff" stroke-linecap="round" stroke-width="4"/>
        <path id="Path_1204" data-name="Path 1204" d="M0,0H17.879" transform="translate(15.294 40.243)" fill="none" stroke="#fff" stroke-linecap="round" stroke-width="4"/>
      </g>
    </g>
    <g id="brain-bg">
      <path id="Path_1207" data-name="Path 1207" d="M57,0A57,57,0,1,1,0,57,57,57,0,0,1,57,0Z" transform="translate(747.597 2287)"/>
    </g>
    <g id="_4555726261582885793" data-name="4555726261582885793" transform="translate(780.597 2316)">
      <path id="Path_193" data-name="Path 193" d="M51.763,25.946h7.073a7.923,7.923,0,1,1,0,15.845H52.067L47.446,46a.928.928,0,0,1-1.552-.686V41.791H44.768a.928.928,0,0,1-.927-.927v-7A7.932,7.932,0,0,1,51.763,25.946Zm9.587,9.413a1.529,1.529,0,1,0-1.529-1.529,1.529,1.529,0,0,0,1.529,1.529Zm-6.051,0a1.529,1.529,0,1,0-1.082-.448,1.529,1.529,0,0,0,1.082.448Zm-6.052,0a1.529,1.529,0,1,0-1.529-1.529,1.529,1.529,0,0,0,1.529,1.529Z" transform="translate(-33.833 -15.033)" fill="#fff"/>
      <g id="brain">
        <path id="Path_194" data-name="Path 194" d="M42.01,57.658a2.371,2.371,0,0,0,2.363-2.2c.063-.9.138-2.042.212-3.166.06-.921.129-1.961.185-2.778l1.722,0c.2,0,.418.007.639.013,1.427.04,3.381.094,4.838-1.24a5.113,5.113,0,0,0,1.508-3.318c.054-.363.918-6.056,1.465-9.664l.044-.019c.344-.148.688-.3,1.029-.457a12.068,12.068,0,0,0,1.361-.716,2.607,2.607,0,0,0,1.352-3.237,4.905,4.905,0,0,0-.891-1.573c-.216-.264-.734-.772-2.091-2.077-.378-.363-.722-.694-.933-.9A4.342,4.342,0,0,1,53.6,24.662c.006-.932.006-1.526.006-1.627a21.153,21.153,0,1,0-40.513,8.359A36.258,36.258,0,0,1,16.179,45.8v4.139a3.212,3.212,0,0,0,2.578,3.138l22.788,4.533a2.331,2.331,0,0,0,.465.046Zm.18-3.289H42.2Zm1.057-8.17h-1.26l-.333,1.215a38.921,38.921,0,0,0-.366,4.656c-.047.712-.094,1.432-.139,2.092L19.484,49.853V45.8a39.546,39.546,0,0,0-3.355-15.719A17.815,17.815,0,0,1,32.2,5.227h0A17.8,17.8,0,0,1,50.3,23.035c0,.105,0,.756-.007,1.771v.135l.021.133a6.685,6.685,0,0,0,2.177,3.6c.218.215.573.556.962.93.614.591,1.643,1.579,1.825,1.788l.061.078c-.245.135-.495.253-.718.356-.323.152-.634.285-.945.42l-.189.081c-.033.015-.069.028-.107.042a3.2,3.2,0,0,0-.885.468l-.142.112-.49.6L51.8,34c-.476,3.134-1.583,10.434-1.6,10.531l-.005.045a2.077,2.077,0,0,1-.456,1.271,4.14,4.14,0,0,1-2.515.376c-.249-.007-.493-.014-.727-.014-1.017,0-2.027,0-3.04-.007Z" transform="translate(-11.285 -1.728)" fill="#fff"/>
      </g>
    </g>
    <g id="devolper-bg">
      <path id="Path_1206" data-name="Path 1206" d="M57,0A57,57,0,1,1,0,57,57,57,0,0,1,57,0Z" transform="translate(1044.597 2287)"/>
    </g>
    <g id="_14228442891582807874" data-name="14228442891582807874" transform="translate(1069.494 2311.897)" clip-path="url(#clip-path)">
      <g id="devolper">
        <path id="Path_195" data-name="Path 195" d="M38.433,3.081A2.7,2.7,0,0,1,40.4,6.353L29.6,49.529a2.7,2.7,0,0,1-5.236-1.309L35.161,5.044A2.7,2.7,0,0,1,38.433,3.081ZM18.1,11.886a2.7,2.7,0,0,1,0,3.816L6.515,27.287,18.1,38.871a2.7,2.7,0,0,1-3.816,3.816L.79,29.195a2.7,2.7,0,0,1,0-3.816L14.283,11.886A2.7,2.7,0,0,1,18.1,11.886Zm28.565,0a2.7,2.7,0,0,1,3.816,0L63.973,25.379a2.7,2.7,0,0,1,0,3.816L50.481,42.687a2.7,2.7,0,0,1-3.816-3.816L58.249,27.287,46.664,15.7A2.7,2.7,0,0,1,46.664,11.886Z" transform="translate(-0.112 4.983)" fill="#fff" fill-rule="evenodd"/>
      </g>
    </g>
    <g id="delivery-bg">
      <path id="Path_1208" data-name="Path 1208" d="M57,0A57,57,0,1,1,0,57,57,57,0,0,1,57,0Z" transform="translate(1344.597 2287)"/>
    </g>
    <g id="delivery">
      <path id="_12213212301582806156" data-name="12213212301582806156" d="M0,10.942A7.942,7.942,0,0,1,7.942,3H31.77a7.942,7.942,0,0,1,7.942,7.942h8.045a7.943,7.943,0,0,1,6.2,2.981l7.84,9.8a7.941,7.941,0,0,1,1.74,4.962v8.732A7.942,7.942,0,0,1,55.6,45.359h-.452a7.946,7.946,0,0,1-14.981,0H23.375a7.946,7.946,0,0,1-14.981,0H7.942A7.942,7.942,0,0,1,0,37.417ZM8.394,40.065a7.946,7.946,0,0,1,14.981,0H34.417V10.942A2.647,2.647,0,0,0,31.77,8.295H7.942a2.647,2.647,0,0,0-2.647,2.647V37.417a2.647,2.647,0,0,0,2.647,2.647Zm31.318,0V16.237h8.045a2.648,2.648,0,0,1,2.067.994l7.84,9.8a2.648,2.648,0,0,1,.58,1.654v8.732A2.647,2.647,0,0,1,55.6,40.065h-.452a7.946,7.946,0,0,0-14.981,0Zm-23.827,0a2.647,2.647,0,1,0,2.647,2.647A2.647,2.647,0,0,0,15.885,40.065Zm31.77,0A2.647,2.647,0,1,0,50.3,42.712,2.647,2.647,0,0,0,47.654,40.065Z" transform="translate(1369.597 2317)" fill="#fff" fill-rule="evenodd"/>
    </g>
    <g id="arrow-1" transform="translate(625.697 2468.183) rotate(-120)">
      <path id="Path_191" data-name="Path 191" d="M922.005,528.045a37.651,37.651,0,0,1-1.175-8.059h3.358a35.327,35.327,0,0,0,1.074,7.354Zm2.72-15.614-3.358-.537a43.035,43.035,0,0,1,2.082-7.858l3.19,1.175a39.517,39.517,0,0,0-1.88,7.219Zm5.138-13.969-2.921-1.713a42.675,42.675,0,0,1,4.8-6.548l2.519,2.25A38.878,38.878,0,0,0,929.863,498.462Zm10.074-11.014-1.981-2.72a35.52,35.52,0,0,1,6.951-3.962l1.309,3.123a33.92,33.92,0,0,0-6.447,3.593Zm59.837-5.339v-3.358a65.367,65.367,0,0,0,7.589-.5l.437,3.358c-2.72.269-5.305.437-8.193.5Zm-7.891-.2q-3.929-.235-7.858-.6l.3-3.358c2.586.235,5.138.437,7.723.6Zm-38.381-.369-.739-3.358a56.214,56.214,0,0,1,7.925-1.142l.269,3.358a49.773,49.773,0,0,0-7.623,1.142Zm22.8-.907c-2.585,0-5.137-.336-7.723-.369V476.9c2.653,0,5.272.2,7.891.369Zm39.354-.672-.94-3.358a38.3,38.3,0,0,0,5-1.813l1.846-.94,1.645,2.955a20.725,20.725,0,0,1-2.115,1.075,40.3,40.3,0,0,1-5.675,2.082Zm14.2-7.891-2.351-2.451a28.759,28.759,0,0,0,4.668-5.675l2.888,1.78a32.337,32.337,0,0,1-5.373,6.346Zm8.5-13.935-3.358-.839a18.026,18.026,0,0,0,.638-4.735,18.416,18.416,0,0,0,0-2.35l3.358-.47a19.863,19.863,0,0,1,.2,2.821,21.564,21.564,0,0,1-1.007,5.574Zm-5.238-14.573a28.7,28.7,0,0,0-4.634-5.675l2.384-2.418a32.3,32.3,0,0,1,5.171,6.346Zm-10.376-10.812c-2.015-1.78-4-3.526-5.809-5.44l2.451-2.351a68.531,68.531,0,0,0,5.574,5.2ZM1012.03,420.66a25.788,25.788,0,0,1-2.619-7.857l3.358-.571a24.777,24.777,0,0,0,2.283,6.884Zm.537-15.715-3.358-.4a29.21,29.21,0,0,1,2.048-7.958l3.123,1.276a28.171,28.171,0,0,0-1.981,7.085Zm5.507-13.432-2.619-2.149a25.919,25.919,0,0,1,5.574-5.1l1.881,2.821a22.328,22.328,0,0,0-5,4.5Z" transform="translate(-908.473 -384.28)"/>
      <path id="Path_192" data-name="Path 192" d="M27.3,39.907,24.445,38.06l-9.033,14.1L2.015,42.157,0,44.877,16.319,57.066Z" transform="translate(0 89.788)"/>
    </g>
    <g id="arrow-2" transform="translate(923.697 2468.636) rotate(-120)">
      <path id="Path_191-2" data-name="Path 191" d="M922.005,528.045a37.651,37.651,0,0,1-1.175-8.059h3.358a35.327,35.327,0,0,0,1.074,7.354Zm2.72-15.614-3.358-.537a43.035,43.035,0,0,1,2.082-7.858l3.19,1.175a39.517,39.517,0,0,0-1.88,7.219Zm5.138-13.969-2.921-1.713a42.675,42.675,0,0,1,4.8-6.548l2.519,2.25A38.878,38.878,0,0,0,929.863,498.462Zm10.074-11.014-1.981-2.72a35.52,35.52,0,0,1,6.951-3.962l1.309,3.123a33.92,33.92,0,0,0-6.447,3.593Zm59.837-5.339v-3.358a65.367,65.367,0,0,0,7.589-.5l.437,3.358c-2.72.269-5.305.437-8.193.5Zm-7.891-.2q-3.929-.235-7.858-.6l.3-3.358c2.586.235,5.138.437,7.723.6Zm-38.381-.369-.739-3.358a56.214,56.214,0,0,1,7.925-1.142l.269,3.358a49.773,49.773,0,0,0-7.623,1.142Zm22.8-.907c-2.585,0-5.137-.336-7.723-.369V476.9c2.653,0,5.272.2,7.891.369Zm39.354-.672-.94-3.358a38.3,38.3,0,0,0,5-1.813l1.846-.94,1.645,2.955a20.725,20.725,0,0,1-2.115,1.075,40.3,40.3,0,0,1-5.675,2.082Zm14.2-7.891-2.351-2.451a28.759,28.759,0,0,0,4.668-5.675l2.888,1.78a32.337,32.337,0,0,1-5.373,6.346Zm8.5-13.935-3.358-.839a18.026,18.026,0,0,0,.638-4.735,18.416,18.416,0,0,0,0-2.35l3.358-.47a19.863,19.863,0,0,1,.2,2.821,21.564,21.564,0,0,1-1.007,5.574Zm-5.238-14.573a28.7,28.7,0,0,0-4.634-5.675l2.384-2.418a32.3,32.3,0,0,1,5.171,6.346Zm-10.376-10.812c-2.015-1.78-4-3.526-5.809-5.44l2.451-2.351a68.531,68.531,0,0,0,5.574,5.2ZM1012.03,420.66a25.788,25.788,0,0,1-2.619-7.857l3.358-.571a24.777,24.777,0,0,0,2.283,6.884Zm.537-15.715-3.358-.4a29.21,29.21,0,0,1,2.048-7.958l3.123,1.276a28.171,28.171,0,0,0-1.981,7.085Zm5.507-13.432-2.619-2.149a25.919,25.919,0,0,1,5.574-5.1l1.881,2.821a22.328,22.328,0,0,0-5,4.5Z" transform="translate(-908.473 -384.28)"/>
      <path id="Path_192-2" data-name="Path 192" d="M27.3,39.907,24.445,38.06l-9.033,14.1L2.015,42.157,0,44.877,16.319,57.066Z" transform="translate(0 89.788)"/>
    </g>
    <g id="arrow-3" transform="translate(1223.697 2468.636) rotate(-120)">
      <path id="Path_191-3" data-name="Path 191" d="M922.005,528.045a37.651,37.651,0,0,1-1.175-8.059h3.358a35.327,35.327,0,0,0,1.074,7.354Zm2.72-15.614-3.358-.537a43.035,43.035,0,0,1,2.082-7.858l3.19,1.175a39.517,39.517,0,0,0-1.88,7.219Zm5.138-13.969-2.921-1.713a42.675,42.675,0,0,1,4.8-6.548l2.519,2.25A38.878,38.878,0,0,0,929.863,498.462Zm10.074-11.014-1.981-2.72a35.52,35.52,0,0,1,6.951-3.962l1.309,3.123a33.92,33.92,0,0,0-6.447,3.593Zm59.837-5.339v-3.358a65.367,65.367,0,0,0,7.589-.5l.437,3.358c-2.72.269-5.305.437-8.193.5Zm-7.891-.2q-3.929-.235-7.858-.6l.3-3.358c2.586.235,5.138.437,7.723.6Zm-38.381-.369-.739-3.358a56.214,56.214,0,0,1,7.925-1.142l.269,3.358a49.773,49.773,0,0,0-7.623,1.142Zm22.8-.907c-2.585,0-5.137-.336-7.723-.369V476.9c2.653,0,5.272.2,7.891.369Zm39.354-.672-.94-3.358a38.3,38.3,0,0,0,5-1.813l1.846-.94,1.645,2.955a20.725,20.725,0,0,1-2.115,1.075,40.3,40.3,0,0,1-5.675,2.082Zm14.2-7.891-2.351-2.451a28.759,28.759,0,0,0,4.668-5.675l2.888,1.78a32.337,32.337,0,0,1-5.373,6.346Zm8.5-13.935-3.358-.839a18.026,18.026,0,0,0,.638-4.735,18.416,18.416,0,0,0,0-2.35l3.358-.47a19.863,19.863,0,0,1,.2,2.821,21.564,21.564,0,0,1-1.007,5.574Zm-5.238-14.573a28.7,28.7,0,0,0-4.634-5.675l2.384-2.418a32.3,32.3,0,0,1,5.171,6.346Zm-10.376-10.812c-2.015-1.78-4-3.526-5.809-5.44l2.451-2.351a68.531,68.531,0,0,0,5.574,5.2ZM1012.03,420.66a25.788,25.788,0,0,1-2.619-7.857l3.358-.571a24.777,24.777,0,0,0,2.283,6.884Zm.537-15.715-3.358-.4a29.21,29.21,0,0,1,2.048-7.958l3.123,1.276a28.171,28.171,0,0,0-1.981,7.085Zm5.507-13.432-2.619-2.149a25.919,25.919,0,0,1,5.574-5.1l1.881,2.821a22.328,22.328,0,0,0-5,4.5Z" transform="translate(-908.473 -384.28)"/>
      <path id="Path_192-3" data-name="Path 192" d="M27.3,39.907,24.445,38.06l-9.033,14.1L2.015,42.157,0,44.877,16.319,57.066Z" transform="translate(0 89.788)"/>
    </g>
  </g>
</svg>
