<svg xmlns="http://www.w3.org/2000/svg" width="175.235" height="163.619" viewBox="0 0 175.235 163.619">
  <g id="our-services__item-2" transform="translate(0 0)">
    <path id="Path_559" data-name="Path 559" d="M211.625,431.386c0,2.682-39.225,4.857-87.617,4.857s-87.618-2.174-87.618-4.857,39.217-4.857,87.618-4.857S211.625,428.7,211.625,431.386Z" transform="translate(-36.39 -272.624)" fill="#fbded3"/>
    <path id="Path_560" data-name="Path 560" d="M125.826,88.1c-6.932-25.152-38.175-33.253-56.083-14.459l-.771.82C43.3,102.358,55.436,171.136,109,188.564s109.3-14.4,112.425-42.851-21.588-37.4-59.943-29.43C139.817,120.779,130.141,103.761,125.826,88.1Z" transform="translate(-47.979 -58.399)" fill="#fbded3"/>
    <path id="Path_561" data-name="Path 561" d="M331.835,134.993c-6.94,2.145-8.031,8.708-1.932,12.408a17,17,0,0,0,8.548,2.186c14.356.377,20.952-6.875,14.2-14.147C348.509,130.953,338.71,132.869,331.835,134.993Z" transform="translate(-207.159 -99.32)" fill="#fbded3"/>
    <path id="Path_562" data-name="Path 562" d="M58.51,295.873c-5.525-4.713-11.657-2.121-11.514,5.012a17.087,17.087,0,0,0,2.732,8.388c7.383,12.338,17.022,14.016,19.553,4.422C70.84,307.777,63.986,300.541,58.51,295.873Z" transform="translate(-42.644 -194.154)" fill="#fbded3"/>
    <path id="Path_563" data-name="Path 563" d="M369.281,354.117c-6.317,3.585-5.972,10.23.783,12.531a17.041,17.041,0,0,0,8.815.3c14.11-2.72,18.987-11.214,10.833-16.866C384.679,346.595,375.524,350.565,369.281,354.117Z" transform="translate(-230.072 -226.737)" fill="#fbded3"/>
    <path id="Path_564" data-name="Path 564" d="M426.835,324.517c-2.051,2.871-.451,6.284,3.043,6.415a6.863,6.863,0,0,0,3.979-1.23c5.685-3.659,6.021-8.86,1.185-10.517C432.056,318.151,428.853,321.675,426.835,324.517Z" transform="translate(-266.149 -209.2)" fill="#fbded3"/>
    <path id="Path_565" data-name="Path 565" d="M119.554,337.093c0-.07.365-7,3-9.254a2.593,2.593,0,0,1,2.051-.656c4.512.488,4.627,9.844,4.627,9.947h.82c0-.41-.123-10.193-5.361-10.763a3.421,3.421,0,0,0-2.683.853c-2.9,2.486-3.281,9.541-3.281,9.844Z" transform="translate(-84.956 -213.532)" fill="#ed3915"/>
    <path id="Path_566" data-name="Path 566" d="M116.176,350.442l-19.926-.082-4,34.738,28.052.115Z" transform="translate(-69.338 -227.697)" fill="#fc5f2d"/>
    <circle id="Ellipse_102" data-name="Ellipse 102" cx="6.448" cy="6.448" r="6.448" transform="translate(31.247 132.606)" fill="#ed3915"/>
    <path id="Path_567" data-name="Path 567" d="M115.294,336.4c0-.07.365-7,3-9.254a2.6,2.6,0,0,1,2.051-.656c4.512.488,4.627,9.844,4.631,9.947h.82c0-.41-.127-10.2-5.365-10.763a3.412,3.412,0,0,0-2.683.849c-2.9,2.486-3.281,9.541-3.281,9.844Z" transform="translate(-82.443 -213.123)" fill="#fc5f2d"/>
    <path id="Path_568" data-name="Path 568" d="M154.706,385.33l2.252-2.518-4.524-30.779-1.854-1.473Z" transform="translate(-103.742 -227.815)" fill="#ed3915"/>
    <path id="Path_569" data-name="Path 569" d="M84.82,340.223c0-.07.369-7,3-9.253a2.6,2.6,0,0,1,2.051-.656c4.512.488,4.631,9.844,4.631,9.947h.82c0-.41-.127-10.193-5.365-10.763a3.417,3.417,0,0,0-2.678.849C84.373,332.807,84,339.886,84,340.19Z" transform="translate(-64.472 -215.378)" fill="#6020bf"/>
    <path id="Path_570" data-name="Path 570" d="M81.4,353.572l-19.926-.082-4,34.734,28.052.119Z" transform="translate(-48.823 -229.543)" fill="#7846d3"/>
    <circle id="Ellipse_103" data-name="Ellipse 103" cx="6.448" cy="6.448" r="6.448" transform="translate(13.393 137.115) rotate(-22.27)" fill="#6020bf"/>
    <path id="Path_571" data-name="Path 571" d="M80.5,339.547c0-.07.369-7,3-9.254a2.592,2.592,0,0,1,2.051-.656c4.512.488,4.627,9.844,4.627,9.947H91c0-.41-.127-10.193-5.365-10.759a3.4,3.4,0,0,0-2.678.849c-2.908,2.486-3.281,9.541-3.281,9.844Z" transform="translate(-61.923 -214.981)" fill="#7846d3"/>
    <path id="Path_572" data-name="Path 572" d="M119.926,388.46l2.252-2.518-4.524-30.779L115.8,353.69Z" transform="translate(-83.228 -229.661)" fill="#6020bf"/>
    <path id="Path_573" data-name="Path 573" d="M337.69,188.659l1.021.336.537.18,1.534.5s22.806-18.458,16.961-29.438c-1.8-3.384-7.24-3.175-10.287,8.138C344.626,178.864,337.69,188.659,337.69,188.659Z" transform="translate(-214.104 -114.434)" fill="#db2121"/>
    <path id="Path_574" data-name="Path 574" d="M340.18,199.4l.537.18a71.262,71.262,0,0,0,10.349-14.619,79.846,79.846,0,0,0,4.1-8.614.258.258,0,1,0-.48-.185,79.965,79.965,0,0,1-4.069,8.56A70.854,70.854,0,0,1,340.18,199.4Z" transform="translate(-215.573 -124.841)" fill="#9d0d15"/>
    <path id="Path_575" data-name="Path 575" d="M148.4,88.981,147.333,89h-.57l-1.612.033S128.813,64.67,137.645,55.9c2.715-2.7,7.851-.894,7.424,10.812C144.671,77.574,148.4,88.981,148.4,88.981Z" transform="translate(-94.568 -53.369)" fill="#db2121"/>
    <path id="Path_576" data-name="Path 576" d="M154.217,99.734h-.57a70.951,70.951,0,0,1-5.566-17.022,79.581,79.581,0,0,1-1.362-9.434.263.263,0,1,1,.525-.033,80.427,80.427,0,0,0,1.354,9.381A70.767,70.767,0,0,0,154.217,99.734Z" transform="translate(-101.465 -64.102)" fill="#9d0d15"/>
    <path id="Path_577" data-name="Path 577" d="M123.958,95.794l-1.292.861-.685.459-1.944,1.292S81.095,81.467,85.012,63.878c1.2-5.414,8.872-7.219,17.494,7.383C110.5,84.8,123.958,95.794,123.958,95.794Z" transform="translate(-64.905 -56.384)" fill="#fc5f2d"/>
    <path id="Path_578" data-name="Path 578" d="M134.327,110.778l-.685.459a102.886,102.886,0,0,1-20.078-16.407,117.6,117.6,0,0,1-9.024-10.443.373.373,0,0,1,.578-.443,114.887,114.887,0,0,0,8.975,10.377A102.871,102.871,0,0,0,134.327,110.778Z" transform="translate(-76.566 -70.507)" fill="#db2121"/>
    <path id="Path_579" data-name="Path 579" d="M324.79,198.595l1.124,1.071.595.57,1.686,1.612s41.3-9.906,40.5-27.892c-.242-5.541-7.482-8.655-18.511,4.229C339.958,190.108,324.79,198.595,324.79,198.595Z" transform="translate(-206.495 -120.817)" fill="#fc5f2d"/>
    <path id="Path_580" data-name="Path 580" d="M327.53,212.676l.595.57a103.117,103.117,0,0,0,22.629-12.662,115.784,115.784,0,0,0,10.71-8.716.373.373,0,1,0-.517-.537,114.39,114.39,0,0,1-10.664,8.655A100.826,100.826,0,0,1,327.53,212.676Z" transform="translate(-208.112 -133.828)" fill="#db2121"/>
    <path id="Path_581" data-name="Path 581" d="M96.158,227.56c.066.41.127.894.185,1.395h0c.611,5.25.755,14.143-4.512,17.7,0,0-2.461-17.584-15.176-18.048s-12.892-4.975-14.725-12.482.185-9.742-9.967-13.9S39.82,187.4,39.82,187.4s11.358,9.085,19.352,6.661,11.69,3.86,13.064,9,8.286,3.421,12.912,5.094,10.529,16.743,10.529,16.743S95.92,225.928,96.158,227.56Z" transform="translate(-38.413 -131.579)" fill="#fc5f2d"/>
    <path id="Path_582" data-name="Path 582" d="M119.985,243.173c.066.41.127.894.185,1.395a26.566,26.566,0,0,0-5.094-5.074c-3.806-2.871-8.421-4.754-12.039-4.869-5.742-.189-9.955-4.344-13.6-13.482-2.121-5.3-8.856-6.563-8.921-6.563a.357.357,0,0,1-.291-.41.361.361,0,0,1,.41-.3c.291.053,7.194,1.345,9.467,7.026,3.528,8.835,7.523,12.855,12.953,13.027,3.815.123,8.47,2,12.449,5.021A27.37,27.37,0,0,1,119.985,243.173Z" transform="translate(-62.241 -147.192)" fill="#db2121"/>
    <path id="Path_583" data-name="Path 583" d="M313.038,289.938c.021.435.045.9.086,1.407h0c.41,5.275,1.969,14.028,7.834,16.505,0,0-.968-17.724,11.452-20.619s11.7-7.354,12.059-15.074-2.051-9.524,7.117-15.554,9.044-16.883,9.044-16.883-9.405,11.075-17.728,10.254-10.73,6.03-11.1,11.333-7.473,4.947-11.694,7.477S313,287.243,313,287.243,312.96,288.293,313.038,289.938Z" transform="translate(-199.535 -162.439)" fill="#fc5f2d"/>
    <path id="Path_584" data-name="Path 584" d="M313.11,309.879c.021.435.045.9.086,1.407a26.5,26.5,0,0,1,4.028-5.956c3.183-3.564,7.35-6.284,10.878-7.092,5.615-1.288,8.938-6.153,10.767-15.841,1.062-5.611,7.428-8.146,7.494-8.171a.361.361,0,0,0-.262-.673c-.279.107-6.8,2.7-7.941,8.708-1.768,9.348-4.922,14.057-10.217,15.271-3.72.853-7.929,3.589-11.255,7.313A27.379,27.379,0,0,0,313.11,309.879Z" transform="translate(-199.606 -182.38)" fill="#db2121"/>
    <path id="Path_585" data-name="Path 585" d="M235.938,97.332V225.118a7.248,7.248,0,0,1-7.252,7.26H165.052a7.248,7.248,0,0,1-7.252-7.26V97.332a7.248,7.248,0,0,1,7.252-7.252h63.635a7.248,7.248,0,0,1,7.252,7.252Z" transform="translate(-108.001 -74.177)" fill="#133643"/>
    <path id="Path_586" data-name="Path 586" d="M238.964,98.464V226.25a7.248,7.248,0,0,1-7.252,7.26H168.078a7.227,7.227,0,0,1-5.148-2.141L235,92A7.244,7.244,0,0,1,238.964,98.464Z" transform="translate(-111.026 -75.31)" fill="#000b17"/>
    <path id="Path_587" data-name="Path 587" d="M153.656,146.12h.328V163h-.328a2.326,2.326,0,0,1-2.326-2.326V148.446A2.326,2.326,0,0,1,153.656,146.12Z" transform="translate(-104.184 -107.231)" fill="#000b17"/>
    <path id="Path_588" data-name="Path 588" d="M1.9,0H2.17V13.745H1.9a1.9,1.9,0,0,1-1.9-1.9V1.9A1.9,1.9,0,0,1,1.9,0Z" transform="translate(130.112 51.354) rotate(180)" fill="#000b17"/>
    <path id="Path_589" data-name="Path 589" d="M153.656,192.87h.328V209.74h-.328a2.326,2.326,0,0,1-2.326-2.326V195.2A2.326,2.326,0,0,1,153.656,192.87Z" transform="translate(-104.184 -134.805)" fill="#000b17"/>
    <path id="Path_590" data-name="Path 590" d="M237.523,102.1V230.759a3.2,3.2,0,0,1-3.2,3.2H169.815a3.191,3.191,0,0,1-3.2-3.2V102.1a3.2,3.2,0,0,1,3.2-3.2h64.512a3.187,3.187,0,0,1,3.2,3.2Z" transform="translate(-113.203 -79.38)" fill="#fff"/>
    <rect id="Rectangle_836" data-name="Rectangle 836" width="31.625" height="31.625" rx="10.01" transform="translate(56.379 46.284)" fill="#fbded3"/>
    <path id="Path_591" data-name="Path 591" d="M198.122,187.557s-1.378-1.989-2.527-1.948-10.254,6.776-13.3,7.252-2.543,2.728-2.026,3.888,24.2.41,24.2.41.89-7.014.193-9.192S200.477,188.148,198.122,187.557Z" transform="translate(-121.026 -130.522)" fill="#fc5f2d"/>
    <path id="Path_592" data-name="Path 592" d="M205.079,197.061a.41.41,0,0,0,.513-.6,6.549,6.549,0,0,0-2.133-2.383,2.937,2.937,0,0,0-3.011.037.424.424,0,1,0,.484.7,2.1,2.1,0,0,1,2.117,0,5.739,5.739,0,0,1,1.788,2.03A.41.41,0,0,0,205.079,197.061Z" transform="translate(-133.048 -135.285)" fill="#fff"/>
    <path id="Path_593" data-name="Path 593" d="M208.279,194.247a.41.41,0,0,0,.513-.6,6.551,6.551,0,0,0-2.133-2.383,2.92,2.92,0,0,0-3.011.037.424.424,0,0,0,.484.7,2.084,2.084,0,0,1,2.117,0,5.558,5.558,0,0,1,1.788,2.051A.41.41,0,0,0,208.279,194.247Z" transform="translate(-134.935 -133.623)" fill="#fff"/>
    <path id="Path_594" data-name="Path 594" d="M200.819,199.281a.41.41,0,0,0,.513-.6A6.551,6.551,0,0,0,199.2,196.3a2.937,2.937,0,0,0-3.011.037.424.424,0,1,0,.484.7,2.1,2.1,0,0,1,2.121,0,5.808,5.808,0,0,1,1.788,2.03A.41.41,0,0,0,200.819,199.281Z" transform="translate(-130.535 -136.594)" fill="#fff"/>
    <rect id="Rectangle_837" data-name="Rectangle 837" width="31.625" height="31.625" rx="10.01" transform="translate(89.82 46.284)" fill="#fbded3"/>
    <path id="Path_595" data-name="Path 595" d="M288.921,184.742h-4.282v14.143H270.283l.045-14.143H266.07a15,15,0,0,1,3.4-5.853,2.691,2.691,0,0,1,1.961-.849h2.785a3.249,3.249,0,1,0,6.5,0h2.871a2.691,2.691,0,0,1,1.961.849A15,15,0,0,1,288.921,184.742Z" transform="translate(-171.861 -126.058)" fill="#7846d3"/>
    <rect id="Rectangle_838" data-name="Rectangle 838" width="31.625" height="31.625" rx="10.01" transform="translate(56.379 113.196)" fill="#fbded3"/>
    <rect id="Rectangle_839" data-name="Rectangle 839" width="31.625" height="31.625" rx="10.01" transform="translate(89.82 113.196)" fill="#fbded3"/>
    <rect id="Rectangle_840" data-name="Rectangle 840" width="65.07" height="9.213" rx="4.606" transform="translate(56.379 31.92)" fill="#fbded3"/>
    <rect id="Rectangle_841" data-name="Rectangle 841" width="65.07" height="4.016" rx="1.89" transform="translate(56.379 82.687)" fill="#fbded3"/>
    <rect id="Rectangle_842" data-name="Rectangle 842" width="65.07" height="4.016" rx="1.89" transform="translate(56.379 91.391)" fill="#fbded3"/>
    <rect id="Rectangle_843" data-name="Rectangle 843" width="65.07" height="4.016" rx="1.89" transform="translate(56.379 100.091)" fill="#fbded3"/>
    <rect id="Rectangle_844" data-name="Rectangle 844" width="43.86" height="7.354" rx="3.677" transform="translate(66.936 18.556)" fill="#133643"/>
    <rect id="Rectangle_845" data-name="Rectangle 845" width="26.288" height="1.809" rx="0.904" transform="translate(73.905 20.845)" fill="#000b17"/>
    <path id="Path_596" data-name="Path 596" d="M293.144,102.633a1.087,1.087,0,1,1-1.087-1.083,1.087,1.087,0,0,1,1.087,1.083Z" transform="translate(-186.548 -80.943)" fill="#335464"/>
    <path id="Path_597" data-name="Path 597" d="M237.889,102.461V231.125a3.2,3.2,0,0,1-3.2,3.2H170.181a3.2,3.2,0,0,1-2.941-1.944L235.948,99.52A3.208,3.208,0,0,1,237.889,102.461Z" transform="translate(-113.569 -79.745)" fill="#fff" opacity="0.3"/>
    <path id="Path_598" data-name="Path 598" d="M340.7,151.558l5.714,13.019a1.669,1.669,0,0,0,2.2.861l13.023-5.714a1.669,1.669,0,0,0,.857-2.2L356.777,144.5a1.665,1.665,0,0,0-2.2-.857l-13.019,5.71A1.673,1.673,0,0,0,340.7,151.558Zm8.683-2.518a.861.861,0,0,1-1.354-.558.874.874,0,0,1,.344-.82.861.861,0,0,1,1.009,1.395Z" transform="translate(-215.796 -105.688)" fill="#7846d3"/>
    <path id="Path_599" data-name="Path 599" d="M352.631,162.523a2.347,2.347,0,1,1,3.138,1.308A2.263,2.263,0,0,1,352.631,162.523Zm5.956-5.16,1.952-.853-1.973,10.5-1.952.857Zm-3.281,4c-.34-.775-.7-.894-.947-.783s-.41.455-.07,1.231.7.894.947.783.4-.459.062-1.231Zm4.922,2.375a2.347,2.347,0,1,1,3.134,1.308,2.261,2.261,0,0,1-3.134-1.308Zm2.654-1.165c-.336-.771-.693-.89-.947-.779s-.41.451-.066,1.231.693.89.947.779.41-.455.07-1.23Z" transform="translate(-222.766 -113.359)" fill="#fff"/>
    <path id="Path_600" data-name="Path 600" d="M337.014,109.571a33.182,33.182,0,0,0-5.98-12.58l-.18-.234v.73a32.781,32.781,0,0,1,5.742,12.17,12.808,12.808,0,0,1,.32,3.786,3.716,3.716,0,0,1-.578,1.825,1.5,1.5,0,0,1-1.2.652.878.878,0,0,0,.041.41,1.92,1.92,0,0,0,.989-.328,2.016,2.016,0,0,0,.509-.488,4.291,4.291,0,0,0,.681-2.277A13.54,13.54,0,0,0,337.014,109.571Zm-6.153,3.827c-4.372-5.414-10.529-21.329-11.579-24.1l-.025-.057.279.057h1.55a14.207,14.207,0,0,0-2.121-.541.209.209,0,0,0-.2.07.218.218,0,0,0-.037.209l.1.262c.923,2.461,7.445,19.508,12.03,24.75a6.619,6.619,0,0,0,1.231,1.136c.119.082.238.156.357.23l.472-.205c-.193-.111-.39-.234-.595-.373a7.284,7.284,0,0,1-1.472-1.436Z" transform="translate(-202.915 -73.394)" fill="#000b17"/>
    <path id="Path_601" data-name="Path 601" d="M390.232,419.854l-.41,3.835a4.923,4.923,0,0,1-3.232.328l.41-4.487Z" transform="translate(-242.947 -268.495)" fill="#ffaa95"/>
    <path id="Path_602" data-name="Path 602" d="M376.844,428.12s-.627-.911-1.157-.89-4.68,3.1-6.075,3.314-1.161,1.23-.927,1.776,11.075.189,11.075.189a16.778,16.778,0,0,0,.09-4.2C379.53,427.316,377.918,428.39,376.844,428.12Z" transform="translate(-232.281 -273.036)" fill="#fc5f2d"/>
    <path id="Path_603" data-name="Path 603" d="M380.027,432.465a.18.18,0,0,0,.152,0,.193.193,0,0,0,.082-.258,2.993,2.993,0,0,0-.972-1.091,1.342,1.342,0,0,0-1.378,0,.2.2,0,0,0-.049.271.193.193,0,0,0,.271.049.948.948,0,0,1,.968,0,2.64,2.64,0,0,1,.82.931A.185.185,0,0,0,380.027,432.465Z" transform="translate(-237.779 -275.216)" fill="#fff"/>
    <path id="Path_604" data-name="Path 604" d="M381.485,431.168a.193.193,0,0,0,.234-.275,2.978,2.978,0,0,0-.976-1.087,1.337,1.337,0,0,0-1.374,0,.193.193,0,0,0-.049.271.2.2,0,0,0,.271.049.948.948,0,0,1,.968,0,2.646,2.646,0,0,1,.82.927A.209.209,0,0,0,381.485,431.168Z" transform="translate(-238.637 -274.445)" fill="#fff"/>
    <path id="Path_605" data-name="Path 605" d="M378.077,433.466a.193.193,0,0,0,.234-.275,3,3,0,0,0-.972-1.087,1.333,1.333,0,0,0-1.378,0,.2.2,0,0,0-.049.271.2.2,0,0,0,.271.049.947.947,0,0,1,.968,0,2.6,2.6,0,0,1,.82.927A.209.209,0,0,0,378.077,433.466Z" transform="translate(-236.628 -275.798)" fill="#fff"/>
    <path id="Path_606" data-name="Path 606" d="M361.724,248.54c-.258.878-.521,1.78-.784,2.662-.34,1.144-.681,2.26-1,3.281-.455,1.452-.874,2.728-1.21,3.638a118.466,118.466,0,0,1-6.53,12.687l-2.65-.87c1.231-2.3,4.1-12.129,5.517-14.381l.841-3.019.656-2.354.463-1.641Z" transform="translate(-221.099 -167.641)" fill="#ffaa95"/>
    <path id="Path_607" data-name="Path 607" d="M342.129,304.951a.759.759,0,0,1-1.185-.878l1.038-2.527h0a1.042,1.042,0,0,1,.738-1.407l2.436-.55s1.8.164,2.158.849c.221.435-.373,1.6-.82,2.387a1.3,1.3,0,0,1,0,1.05l-.64,1.46a.763.763,0,0,1-1.12.332.819.819,0,0,1-.2-.2v.02a.759.759,0,0,1-1.116.332.9.9,0,0,1-.135-.115.755.755,0,0,1-1.144-.759Z" transform="translate(-215.988 -197.752)" fill="#ffaa95"/>
    <path id="Path_608" data-name="Path 608" d="M348.911,301.79s-.743.7-1.181.64a1.144,1.144,0,0,1,.3.87.694.694,0,0,1,.738.176s.517-.053.693.316c0,0,.615-.16.866.176,0,0,.086-.636-.783-.71s-1.206-.41-.976-.771A2.966,2.966,0,0,0,348.911,301.79Z" transform="translate(-220.026 -199.049)" fill="#ff8b6b"/>
    <path id="Path_609" data-name="Path 609" d="M370.083,253.537c-.34,1.144-.681,2.26-1,3.281a6.661,6.661,0,0,1-4.032-1.944l.656-2.354Z" transform="translate(-230.242 -169.989)" fill="#ff8b6b"/>
    <path id="Path_610" data-name="Path 610" d="M369.688,214.88s-4.922,11.682-7.018,15.464c0,0,2.949,2.514,5.829,2.584C368.5,232.928,370.164,220.1,369.688,214.88Z" transform="translate(-228.838 -147.788)" fill="#6020bf"/>
    <path id="Path_611" data-name="Path 611" d="M431.759,408l2.486,2.953a4.922,4.922,0,0,1-1.989,2.568l-2.966-3.392Z" transform="translate(-268.132 -261.695)" fill="#ffaa95"/>
    <path id="Path_612" data-name="Path 612" d="M432.221,416.058s-1.1-.168-1.44.226-.984,5.525-1.788,6.686.107,1.7.652,1.895,7.777-7.888,7.777-7.888a17.211,17.211,0,0,0-2.982-2.957C433.509,413.565,433.156,415.468,432.221,416.058Z" transform="translate(-267.77 -265.204)" fill="#fc5f2d"/>
    <path id="Path_613" data-name="Path 613" d="M433.759,426.141a.205.205,0,0,0,.1-.119.193.193,0,0,0-.135-.238,2.974,2.974,0,0,0-1.46-.045,1.337,1.337,0,0,0-.935,1.009.193.193,0,1,0,.381.061.968.968,0,0,1,.673-.7,2.637,2.637,0,0,1,1.231.049A.193.193,0,0,0,433.759,426.141Z" transform="translate(-269.332 -272.116)" fill="#fff"/>
    <path id="Path_614" data-name="Path 614" d="M433.829,424.2a.205.205,0,0,0,.1-.119.193.193,0,0,0-.135-.238,2.966,2.966,0,0,0-1.46-.045,1.338,1.338,0,0,0-.935,1.009.193.193,0,0,0,.164.221.2.2,0,0,0,.222-.164.96.96,0,0,1,.669-.7,2.568,2.568,0,0,1,1.231.049A.188.188,0,0,0,433.829,424.2Z" transform="translate(-269.373 -270.972)" fill="#fff"/>
    <path id="Path_615" data-name="Path 615" d="M433.152,428.27a.193.193,0,0,0-.037-.357,3.018,3.018,0,0,0-1.46-.025,1.341,1.341,0,0,0-.935,1.009.2.2,0,0,0,.385.062.956.956,0,0,1,.669-.7,2.63,2.63,0,0,1,1.23.049A.19.19,0,0,0,433.152,428.27Z" transform="translate(-268.975 -273.379)" fill="#fff"/>
    <path id="Path_616" data-name="Path 616" d="M387.483,308.375l1.916,20.73a43.518,43.518,0,0,1,5.025,7.141c1.813,3.281,7.441,13.023,7.441,13.023l-2.535,1.965L381.8,334.269l-3.893-26.1Z" transform="translate(-237.827 -202.812)" fill="#000b17"/>
    <path id="Path_617" data-name="Path 617" d="M427.82,409.567a3.248,3.248,0,0,0,1.325,1.481l3.388-2.871a5.074,5.074,0,0,0-1.153-1.567Z" transform="translate(-267.265 -260.875)" fill="#133643"/>
    <path id="Path_618" data-name="Path 618" d="M405.271,309.514A125.271,125.271,0,0,1,394.922,329.2s-.87,8.4-2.367,12.867c-.652,1.957-1.854,11.025-1.854,11.025H386.19l1.148-25.779,4.692-18.675Z" transform="translate(-242.711 -203.09)" fill="#133643"/>
    <path id="Path_619" data-name="Path 619" d="M384.947,416.66a3.72,3.72,0,0,0,0,2.305l5.135.143a5.876,5.876,0,0,0,.209-2.248Z" transform="translate(-241.869 -266.802)" fill="#3a555b"/>
    <path id="Path_620" data-name="Path 620" d="M399.59,241.867v.468c0,2.81,0,4.984-.029,6.054a44.828,44.828,0,0,1-8.142,1.427l-.369.029h-.2l-.435.029-.488.025a43.032,43.032,0,0,1-5.537-.1c-.373-.033-.747-.066-1.12-.107h-.07l-.287-.033h-.172a45.8,45.8,0,0,1-6.444-1.255v-2.65h0c0-1.3,0-2.912.025-4.738v-.472c0-1.23.025-2.518.041-3.876V236.2c.021-1.395.041-2.843.066-4.311,0-.894.029-1.8.049-2.707s.037-1.833.057-2.748v-.595c.209-8.634.574-16.567,1.177-17.453a9.278,9.278,0,0,1,2.5-2.051l.41-.267c.48-.3,4.393-1.641,4.889-1.92l4.135-.287c.025,0,3.979,1.345,4,1.362l.513.291a23.423,23.423,0,0,1,3.753,2.506c.119.111.23.221.32.324a2.422,2.422,0,0,1,.193.25,1.232,1.232,0,0,1,.144.361c.5,1.817.763,8.962.894,16.735,0,.554,0,1.116.025,1.678v3.7C399.581,234.968,399.594,238.782,399.59,241.867Z" transform="translate(-236.877 -141.288)" fill="#7846d3"/>
    <path id="Path_621" data-name="Path 621" d="M436.364,264.092c.1,1.1-1.231.5-.861-1.731s-.7-4.262-1.165-4.2.386,2.44-.029,3.281-.943-.82-1.477-1.817-.521-3.335-.267-4.967-2.707-11.542-2.724-14.418l-.361-1.231-1.321-4.459-2.051-6.973s1.23-5.287,3.322-4.832c0,0,1.1,3.692,2.285,7.834.2.705.41,1.423.6,2.137.82,3.011,1.641,5.984,2,7.748.972,4.656,1.046,14.332,1.046,14.332s1.715,3.556,1.756,5.139C437.14,261.647,436.262,262.988,436.364,264.092Z" transform="translate(-266.256 -152.413)" fill="#ffaa95"/>
    <path id="Path_622" data-name="Path 622" d="M435.257,244.077l-2.826,6.3-1.321-4.459,3.544-3.979C434.855,242.645,435.056,243.363,435.257,244.077Z" transform="translate(-269.206 -163.748)" fill="#ff8b6b"/>
    <path id="Path_623" data-name="Path 623" d="M431.662,226.462c-1.23,2.125-2.5,4.241-3.757,6.358-.41-1.386-.82-2.715-1.23-3.938h0c-.16-.488-.316-.96-.468-1.411v-.025l-.156-.468h0a34.094,34.094,0,0,1-1.2-4.1c-.357-2.26.619-6.69,1.993-7.564h0c.037.078.148-.168.209,0a33.871,33.871,0,0,1,1.846,3.281c.07.172.139.349.209.533C429.853,221.081,430.793,223.648,431.662,226.462Z" transform="translate(-265.472 -148.008)" fill="#7846d3"/>
    <path id="Path_624" data-name="Path 624" d="M399.757,210.6a4.423,4.423,0,0,1-3.105-1.706.242.242,0,0,1,.033-.324.209.209,0,0,1,.3.033,3.99,3.99,0,0,0,2.769,1.534,3.326,3.326,0,0,0,2.523-1.727.213.213,0,0,1,.3-.086.238.238,0,0,1,.078.316A3.73,3.73,0,0,1,399.757,210.6Z" transform="translate(-248.853 -143.901)" fill="#6020bf"/>
    <path id="Path_625" data-name="Path 625" d="M385.527,249.031a.219.219,0,0,1-.1-.025.238.238,0,0,1-.094-.312l.779-1.641a.205.205,0,0,1,.3-.1.242.242,0,0,1,.1.312l-.783,1.641A.213.213,0,0,1,385.527,249.031Z" transform="translate(-242.191 -166.688)" fill="#6020bf"/>
    <path id="Path_626" data-name="Path 626" d="M381.172,245.5a.26.26,0,0,1-.094.033.226.226,0,0,1-.238-.209l-.152-1.842a.23.23,0,0,1,.2-.254.226.226,0,0,1,.238.209l.152,1.846A.23.23,0,0,1,381.172,245.5Z" transform="translate(-239.464 -164.508)" fill="#6020bf"/>
    <path id="Path_627" data-name="Path 627" d="M391.381,238.516a.222.222,0,0,1-.213-.2l-.283-1.825a.23.23,0,0,1,.18-.267.222.222,0,0,1,.25.193l.279,1.821a.23.23,0,0,1-.176.271Z" transform="translate(-245.477 -160.377)" fill="#6020bf"/>
    <path id="Path_628" data-name="Path 628" d="M408.886,240.5a.184.184,0,0,1-.111-.033.246.246,0,0,1-.078-.32l.882-1.592a.213.213,0,0,1,.3-.082.242.242,0,0,1,.074.32l-.878,1.591A.217.217,0,0,1,408.886,240.5Z" transform="translate(-255.969 -161.686)" fill="#6020bf"/>
    <path id="Path_629" data-name="Path 629" d="M385.791,223.957a.213.213,0,0,1-.119-.037l-1.452-1a.242.242,0,0,1-.062-.32.205.205,0,0,1,.3-.07l1.452,1a.238.238,0,0,1,.066.32A.213.213,0,0,1,385.791,223.957Z" transform="translate(-241.492 -152.275)" fill="#6020bf"/>
    <path id="Path_630" data-name="Path 630" d="M403.687,259.184a.176.176,0,0,1-.1-.025.238.238,0,0,1-.094-.312l.779-1.641a.209.209,0,0,1,.291-.1.242.242,0,0,1,.1.312l-.784,1.641A.213.213,0,0,1,403.687,259.184Z" transform="translate(-252.903 -172.678)" fill="#6020bf"/>
    <path id="Path_631" data-name="Path 631" d="M395.285,227.018a.218.218,0,0,1-.185-.111.242.242,0,0,1,.066-.32l1.468-.98a.2.2,0,0,1,.3.074.246.246,0,0,1-.07.32l-1.464.976A.209.209,0,0,1,395.285,227.018Z" transform="translate(-247.946 -154.093)" fill="#6020bf"/>
    <path id="Path_632" data-name="Path 632" d="M386.375,210.506a.264.264,0,0,1-.025.127.217.217,0,0,1-.176.123.225.225,0,0,1-.234-.217l-.07-1.062.41-.267Z" transform="translate(-242.522 -144.443)" fill="#6020bf"/>
    <path id="Path_633" data-name="Path 633" d="M382.018,234.973a.222.222,0,0,1-.185-.107.25.25,0,0,1,.07-.324l1.468-.98a.213.213,0,0,1,.3.074.25.25,0,0,1-.07.324l-1.464.993A.21.21,0,0,1,382.018,234.973Z" transform="translate(-240.122 -158.787)" fill="#6020bf"/>
    <path id="Path_634" data-name="Path 634" d="M410.515,214.8a.213.213,0,0,1-.119-.037.238.238,0,0,1-.062-.324l.82-1.354a.209.209,0,0,1,.3-.07.246.246,0,0,1,.062.324l-.82,1.358A.213.213,0,0,1,410.515,214.8Z" transform="translate(-256.929 -146.665)" fill="#6020bf"/>
    <path id="Path_635" data-name="Path 635" d="M410.617,271.955a.218.218,0,0,1-.16-.074l-1.2-1.333a.246.246,0,0,1,0-.328.2.2,0,0,1,.308,0l1.2,1.333a.246.246,0,0,1,0,.328.2.2,0,0,1-.148.074Z" transform="translate(-256.281 -180.388)" fill="#6020bf"/>
    <path id="Path_636" data-name="Path 636" d="M399.887,271.278a.23.23,0,0,1-.16-.07l-1.2-1.333a.25.25,0,0,1,0-.332.209.209,0,0,1,.308,0l1.2,1.333a.246.246,0,0,1,0,.328A.213.213,0,0,1,399.887,271.278Z" transform="translate(-249.951 -179.989)" fill="#6020bf"/>
    <path id="Path_637" data-name="Path 637" d="M394.188,293.007a.286.286,0,0,1,0-.185l.75-1.665a.205.205,0,0,1,.287-.111.238.238,0,0,1,.1.312l-.747,1.665a.209.209,0,0,1-.291.111A.238.238,0,0,1,394.188,293.007Z" transform="translate(-247.419 -192.699)" fill="#6020bf"/>
    <path id="Path_638" data-name="Path 638" d="M424.973,306.421a.23.23,0,0,1,0-.181l.747-1.669a.217.217,0,0,1,.291-.111.242.242,0,0,1,.1.312l-.73,1.669a.213.213,0,0,1-.291.107.225.225,0,0,1-.119-.127Z" transform="translate(-265.575 -200.613)" fill="#6020bf"/>
    <path id="Path_639" data-name="Path 639" d="M410.931,314.162l-.435.029-.152-1.038a.23.23,0,0,1,.18-.267.213.213,0,0,1,.246.193Z" transform="translate(-256.955 -205.592)" fill="#6020bf"/>
    <path id="Path_640" data-name="Path 640" d="M415.481,305.115a.234.234,0,0,1-.09-.156l-.267-1.825a.23.23,0,0,1,.181-.267.221.221,0,0,1,.25.193l.267,1.829a.23.23,0,0,1-.18.267A.221.221,0,0,1,415.481,305.115Z" transform="translate(-259.775 -199.683)" fill="#6020bf"/>
    <path id="Path_641" data-name="Path 641" d="M390.074,268.137a.23.23,0,0,1-.111-.033.242.242,0,0,1-.078-.32l.866-1.6a.209.209,0,0,1,.3-.082.238.238,0,0,1,.078.316l-.866,1.6A.213.213,0,0,1,390.074,268.137Z" transform="translate(-244.872 -177.981)" fill="#6020bf"/>
    <path id="Path_642" data-name="Path 642" d="M395.134,258.326a.213.213,0,0,1-.193-.123l-.8-1.641a.246.246,0,0,1,.094-.316.217.217,0,0,1,.3.1l.792,1.641a.238.238,0,0,1-.094.312A.2.2,0,0,1,395.134,258.326Z" transform="translate(-247.389 -172.173)" fill="#6020bf"/>
    <path id="Path_643" data-name="Path 643" d="M378.078,258.8a.225.225,0,0,1-.082.062.2.2,0,0,1-.226-.037l-.89-.8v-.595l1.157,1.038a.246.246,0,0,1,.041.332Z" transform="translate(-237.219 -172.885)" fill="#6020bf"/>
    <path id="Path_644" data-name="Path 644" d="M395.107,215.82a.217.217,0,0,1-.193-.127l-.792-1.641a.234.234,0,0,1,.094-.312.205.205,0,0,1,.291.1l.792,1.641a.234.234,0,0,1-.09.312A.192.192,0,0,1,395.107,215.82Z" transform="translate(-247.374 -147.1)" fill="#6020bf"/>
    <path id="Path_645" data-name="Path 645" d="M408.686,230.251h-.041a.234.234,0,0,1-.172-.275l.328-1.817a.217.217,0,0,1,.254-.185.234.234,0,0,1,.172.275l-.328,1.817A.222.222,0,0,1,408.686,230.251Z" transform="translate(-255.851 -155.509)" fill="#6020bf"/>
    <path id="Path_646" data-name="Path 646" d="M401.767,234.137h-.02a.234.234,0,0,1-.172-.271l.328-1.817a.217.217,0,0,1,.254-.185.234.234,0,0,1,.172.275L402,233.953A.221.221,0,0,1,401.767,234.137Z" transform="translate(-251.782 -157.804)" fill="#6020bf"/>
    <path id="Path_647" data-name="Path 647" d="M405.356,219.893a.226.226,0,0,1-.185-.111l-.923-1.559a.242.242,0,0,1,.066-.324.209.209,0,0,1,.3.074l.927,1.559a.242.242,0,0,1-.066.324A.213.213,0,0,1,405.356,219.893Z" transform="translate(-253.341 -149.548)" fill="#6020bf"/>
    <path id="Path_648" data-name="Path 648" d="M386.186,259.095a.25.25,0,0,1-.037-.262l.742-1.665a.209.209,0,0,1,.291-.111.238.238,0,0,1,.1.312l-.742,1.665a.209.209,0,0,1-.291.111A.2.2,0,0,1,386.186,259.095Z" transform="translate(-242.674 -172.651)" fill="#6020bf"/>
    <path id="Path_649" data-name="Path 649" d="M398.717,247.107a.213.213,0,0,1-.205-.148l-.627-1.723a.23.23,0,0,1,.123-.3.209.209,0,0,1,.279.131l.632,1.723a.234.234,0,0,1-.123.3A.176.176,0,0,1,398.717,247.107Z" transform="translate(-249.598 -165.507)" fill="#6020bf"/>
    <path id="Path_650" data-name="Path 650" d="M416.5,273.151a.2.2,0,0,1-.1-.025.238.238,0,0,1-.1-.312l.783-1.641a.205.205,0,0,1,.291-.1.238.238,0,0,1,.094.312l-.779,1.641A.213.213,0,0,1,416.5,273.151Z" transform="translate(-260.46 -180.915)" fill="#6020bf"/>
    <path id="Path_651" data-name="Path 651" d="M386,303.538a.233.233,0,0,1-.025.1.205.205,0,0,1-.291.1l-1.538-.849a.238.238,0,0,1-.09-.316.213.213,0,0,1,.291-.1l1.534.853A.23.23,0,0,1,386,303.538Z" transform="translate(-241.439 -199.439)" fill="#6020bf"/>
    <path id="Path_652" data-name="Path 652" d="M377.264,306.685a.236.236,0,0,1-.025.107.205.205,0,0,1-.291.1l-.668-.369V306l.865.476A.242.242,0,0,1,377.264,306.685Z" transform="translate(-236.866 -201.532)" fill="#6020bf"/>
    <path id="Path_653" data-name="Path 653" d="M392.994,312.241l-.525,1.2-.287-.033h-.172l.591-1.341a.209.209,0,0,1,.287-.115A.242.242,0,0,1,392.994,312.241Z" transform="translate(-246.144 -205.029)" fill="#6020bf"/>
    <path id="Path_654" data-name="Path 654" d="M423,262.636a.222.222,0,0,1-.213-.2l-.283-1.825a.23.23,0,0,1,.18-.267.222.222,0,0,1,.25.193l.283,1.825a.234.234,0,0,1-.18.267Z" transform="translate(-264.128 -174.604)" fill="#6020bf"/>
    <path id="Path_655" data-name="Path 655" d="M423.848,230.151a.229.229,0,0,1-.111-.033.25.25,0,0,1-.078-.32l.882-1.591a.213.213,0,0,1,.3-.082.246.246,0,0,1,.078.32l-.882,1.591a.217.217,0,0,1-.189.115Z" transform="translate(-264.794 -155.581)" fill="#6020bf"/>
    <path id="Path_656" data-name="Path 656" d="M414.855,246.759a.214.214,0,0,1-.119-.037l-1.452-1.005a.238.238,0,0,1-.066-.32.214.214,0,0,1,.3-.07l1.452,1a.242.242,0,0,1,.062.32A.21.21,0,0,1,414.855,246.759Z" transform="translate(-258.632 -165.725)" fill="#6020bf"/>
    <path id="Path_657" data-name="Path 657" d="M379.467,272.288a.217.217,0,0,1-.1-.025.242.242,0,0,1-.094-.316l.779-1.641a.209.209,0,0,1,.291-.1.242.242,0,0,1,.1.316l-.783,1.641A.213.213,0,0,1,379.467,272.288Z" transform="translate(-238.617 -180.405)" fill="#6020bf"/>
    <path id="Path_658" data-name="Path 658" d="M422.977,252.923a.213.213,0,0,1-.185-.107.246.246,0,0,1,.07-.324l1.464-.98a.213.213,0,0,1,.3.074.246.246,0,0,1-.07.324l-1.464.98A.2.2,0,0,1,422.977,252.923Z" transform="translate(-264.28 -169.374)" fill="#6020bf"/>
    <path id="Path_659" data-name="Path 659" d="M414.195,257.528a.21.21,0,0,1-.205.057.238.238,0,0,1-.152-.287l.451-1.784a.221.221,0,0,1,.271-.164.234.234,0,0,1,.152.287l-.455,1.784a.218.218,0,0,1-.062.107Z" transform="translate(-259.013 -171.654)" fill="#6020bf"/>
    <path id="Path_660" data-name="Path 660" d="M428.681,214.288l-.377.611a.218.218,0,0,1-.185.107.189.189,0,0,1-.119-.041.242.242,0,0,1-.061-.32l.41-.685a3.975,3.975,0,0,1,.332.328Z" transform="translate(-267.314 -147.245)" fill="#6020bf"/>
    <path id="Path_661" data-name="Path 661" d="M432.674,223.883l-.41.652a.209.209,0,0,1-.181.107.193.193,0,0,1-.123-.041.242.242,0,0,1-.062-.32l.574-.931Z" transform="translate(-269.65 -152.783)" fill="#6020bf"/>
    <path id="Path_662" data-name="Path 662" d="M385.861,286.775a.2.2,0,0,1-.156-.074l-1.2-1.333a.242.242,0,0,1,0-.328.205.205,0,0,1,.308,0l1.2,1.333a.25.25,0,0,1,0,.332.23.23,0,0,1-.152.07Z" transform="translate(-241.681 -189.129)" fill="#6020bf"/>
    <path id="Path_663" data-name="Path 663" d="M405.269,298.142a.2.2,0,0,1-.156-.074l-1.206-1.333a.246.246,0,0,1,0-.332.209.209,0,0,1,.308,0l1.2,1.333a.25.25,0,0,1,0,.332A.214.214,0,0,1,405.269,298.142Z" transform="translate(-253.123 -195.832)" fill="#6020bf"/>
    <path id="Path_664" data-name="Path 664" d="M412.652,293.008a.242.242,0,0,1-.045-.176L412.82,291a.221.221,0,1,1,.435.057l-.217,1.833a.218.218,0,0,1-.242.2A.209.209,0,0,1,412.652,293.008Z" transform="translate(-258.291 -192.552)" fill="#6020bf"/>
    <path id="Path_665" data-name="Path 665" d="M399.621,306.238a.218.218,0,0,1-.16-.074l-1.194-1.333a.242.242,0,0,1,0-.328.209.209,0,0,1,.308,0l1.2,1.337a.246.246,0,0,1,0,.328A.23.23,0,0,1,399.621,306.238Z" transform="translate(-249.797 -200.61)" fill="#6020bf"/>
    <path id="Path_666" data-name="Path 666" d="M430.8,296.52v.468l-1.349.123a.23.23,0,0,1-.238-.213.234.234,0,0,1,.2-.254Z" transform="translate(-268.083 -195.941)" fill="#6020bf"/>
    <path id="Path_667" data-name="Path 667" d="M392.451,279.938a.2.2,0,0,1-.156-.074l-1.2-1.333a.242.242,0,0,1,0-.328.209.209,0,0,1,.308,0l1.2,1.333a.25.25,0,0,1,0,.332.221.221,0,0,1-.152.07Z" transform="translate(-245.568 -185.097)" fill="#6020bf"/>
    <path id="Path_668" data-name="Path 668" d="M406.013,280.755a.23.23,0,0,1-.078.164l-1.325,1.19a.205.205,0,0,1-.3-.029.246.246,0,0,1,.025-.328l1.325-1.189a.2.2,0,0,1,.3.029A.226.226,0,0,1,406.013,280.755Z" transform="translate(-253.366 -186.497)" fill="#6020bf"/>
    <path id="Path_669" data-name="Path 669" d="M423.6,294.1a.221.221,0,0,1-.111-.029.246.246,0,0,1-.078-.32l.866-1.6a.213.213,0,0,1,.3-.086.246.246,0,0,1,.078.32l-.865,1.6a.217.217,0,0,1-.189.115Z" transform="translate(-264.645 -193.296)" fill="#6020bf"/>
    <path id="Path_670" data-name="Path 670" d="M426.115,282.45a.226.226,0,0,1-.2-.127l-.792-1.641a.242.242,0,0,1,.094-.312.209.209,0,0,1,.3.1l.792,1.641a.242.242,0,0,1-.094.312A.226.226,0,0,1,426.115,282.45Z" transform="translate(-265.662 -186.399)" fill="#6020bf"/>
    <path id="Path_671" data-name="Path 671" d="M420.347,236.974a.213.213,0,0,1-.193-.123l-.792-1.641a.242.242,0,0,1,.09-.316.213.213,0,0,1,.3.1l.792,1.641a.234.234,0,0,1-.094.312A.205.205,0,0,1,420.347,236.974Z" transform="translate(-262.261 -159.578)" fill="#6020bf"/>
    <path id="Path_672" data-name="Path 672" d="M423.6,219.9h-.041a.234.234,0,0,1-.172-.275l.328-1.813a.217.217,0,0,1,.254-.185.23.23,0,0,1,.172.271l-.328,1.817A.222.222,0,0,1,423.6,219.9Z" transform="translate(-264.645 -149.405)" fill="#6020bf"/>
    <path id="Path_673" data-name="Path 673" d="M433.305,235.167h-.041a.225.225,0,0,1-.172-.271l.328-1.817a.217.217,0,0,1,.254-.185.234.234,0,0,1,.172.275l-.328,1.813A.217.217,0,0,1,433.305,235.167Z" transform="translate(-270.371 -158.411)" fill="#6020bf"/>
    <path id="Path_674" data-name="Path 674" d="M416.687,223.783h-.041a.238.238,0,0,1-.172-.275l.328-1.817a.226.226,0,0,1,.254-.185.238.238,0,0,1,.176.275L416.9,223.6A.225.225,0,0,1,416.687,223.783Z" transform="translate(-260.57 -151.695)" fill="#6020bf"/>
    <path id="Path_675" data-name="Path 675" d="M419.277,208.992a.221.221,0,0,1-.263-.176l-.365-1.665.513.291.279,1.267A.242.242,0,0,1,419.277,208.992Z" transform="translate(-261.856 -143.228)" fill="#6020bf"/>
    <path id="Path_676" data-name="Path 676" d="M430.684,242.377a.221.221,0,0,1-.185-.107l-.927-1.563a.242.242,0,0,1,.07-.32.209.209,0,0,1,.3.07l.927,1.563a.242.242,0,0,1-.066.32A.214.214,0,0,1,430.684,242.377Z" transform="translate(-268.279 -162.812)" fill="#6020bf"/>
    <path id="Path_677" data-name="Path 677" d="M417.164,283.215a.237.237,0,0,1-.037-.258l.742-1.669a.209.209,0,0,1,.291-.111.242.242,0,0,1,.1.312l-.747,1.653a.205.205,0,0,1-.287.107A.165.165,0,0,1,417.164,283.215Z" transform="translate(-260.945 -186.877)" fill="#6020bf"/>
    <path id="Path_678" data-name="Path 678" d="M377.792,293.16l-1.452.25v-.472l1.378-.242a.217.217,0,0,1,.25.193A.238.238,0,0,1,377.792,293.16Z" transform="translate(-236.901 -193.684)" fill="#6020bf"/>
    <path id="Path_679" data-name="Path 679" d="M377.408,282.766l-.968.168v-.472l.894-.156a.221.221,0,0,1,.25.193A.23.23,0,0,1,377.408,282.766Z" transform="translate(-236.96 -187.557)" fill="#6020bf"/>
    <path id="Path_680" data-name="Path 680" d="M429.689,271.227a.213.213,0,0,1-.2-.148l-.632-1.723a.234.234,0,0,1,.123-.3.213.213,0,0,1,.283.131l.632,1.723a.238.238,0,0,1-.123.3A.2.2,0,0,1,429.689,271.227Z" transform="translate(-267.867 -179.733)" fill="#6020bf"/>
    <path id="Path_681" data-name="Path 681" d="M429.92,250.646c-.41-1.69-.923-3.569-1.432-5.189h0c-.156-.5-.312-.976-.467-1.411a.057.057,0,0,0,0-.025c-.045-.135-.094-.271-.144-.41a.4.4,0,0,1,0-.07h0a.193.193,0,0,1,.373-.061c.525,1.423,1.14,3.47,1.67,5.484C429.9,249.522,429.912,250.084,429.92,250.646Z" transform="translate(-267.298 -164.583)" fill="#6020bf"/>
    <path id="Path_682" data-name="Path 682" d="M387.831,165.018s-2.313-.82-2.084-2.6c.2-1.53,1.9-.537,1.747-1.735s-.484-2.281.98-2.58c1.276-.262,1.3.664,2.978-.681,1.981-1.591,3.507,2.092,5.275,2.2,2.613.16,2.941,1.723,3.2,2.974s-1.009,2.719-1.009,2.719Z" transform="translate(-242.44 -113.66)" fill="#133643"/>
    <path id="Path_683" data-name="Path 683" d="M389.025,181.991s-.972-1.292-1.69-.222.3,4.229,2.051,3.458Z" transform="translate(-243.249 -128.008)" fill="#ff8b6b"/>
    <path id="Path_684" data-name="Path 684" d="M389.553,185.879a.148.148,0,0,1-.144-.111,2.3,2.3,0,0,0-1.3-1.374.152.152,0,0,1-.086-.193.148.148,0,0,1,.193-.086,2.568,2.568,0,0,1,1.477,1.575.148.148,0,0,1-.1.18Z" transform="translate(-243.789 -129.636)" fill="#d85c48"/>
    <path id="Path_685" data-name="Path 685" d="M389.059,186.231a.144.144,0,0,1-.078-.025.148.148,0,0,1-.045-.205,1.359,1.359,0,0,1,.558-.451.149.149,0,1,1,.123.271,1.083,1.083,0,0,0-.431.34A.152.152,0,0,1,389.059,186.231Z" transform="translate(-244.316 -130.48)" fill="#d85c48"/>
    <path id="Path_686" data-name="Path 686" d="M415.651,181.991s.968-1.292,1.69-.222-.3,4.229-2.051,3.458Z" transform="translate(-259.875 -128.008)" fill="#ff8b6b"/>
    <path id="Path_687" data-name="Path 687" d="M415.983,185.88a.156.156,0,0,0,.144-.111,2.3,2.3,0,0,1,1.292-1.374.149.149,0,1,0-.107-.279,2.563,2.563,0,0,0-1.473,1.575.139.139,0,0,0,.1.18Z" transform="translate(-260.195 -129.636)" fill="#d85c48"/>
    <path id="Path_688" data-name="Path 688" d="M417.753,186.233a.152.152,0,0,0,.127-.23,1.391,1.391,0,0,0-.562-.451.152.152,0,0,0-.2.074.148.148,0,0,0,.078.2,1.164,1.164,0,0,1,.431.34A.144.144,0,0,0,417.753,186.233Z" transform="translate(-260.947 -130.482)" fill="#d85c48"/>
    <path id="Path_689" data-name="Path 689" d="M403.194,197.34v3.142s-.935,1.6-2.2,1.71-2.391-1.378-2.391-1.378v-3.253Z" transform="translate(-250.03 -137.442)" fill="#ffaa95"/>
    <path id="Path_690" data-name="Path 690" d="M403.194,197.34v1.395c-.849.943-2.359,1.177-4.594.849v-2.022Z" transform="translate(-250.03 -137.442)" fill="#ff8b6b"/>
    <path id="Path_691" data-name="Path 691" d="M401.635,171.966a30.173,30.173,0,0,1-.41,3.966h0a8.391,8.391,0,0,1-.193.82c-.041.148-.086.3-.139.464-.742,2.334-2.461,5.718-6.8,4.167-1.825-.648-2.777-2.535-3.281-4.582-.029-.123-.057-.242-.078-.357s-.033-.152-.045-.226l-.025-.111v-.041h0a22.69,22.69,0,0,1-.308-4.3,3.281,3.281,0,0,1,1.665-2.789,8.725,8.725,0,0,1,7.514-.242A3.282,3.282,0,0,1,401.635,171.966Z" transform="translate(-245.161 -120.136)" fill="#ffaa95"/>
    <path id="Path_692" data-name="Path 692" d="M401.686,187.275l-.664-.045a17.1,17.1,0,0,1-.943,1.641c-.558-1.231-3.281-.336-3.281-.336a1.612,1.612,0,0,1-.521.086,1.828,1.828,0,0,1-.513-.078h0s-2.736-.857-3.281.435a4.855,4.855,0,0,1-.722-1.678l-.64.127h0v.041l.025.111a1.162,1.162,0,0,0,.045.226c.016.078.049.234.078.357.484,2.051,1.436,3.934,3.281,4.582,4.336,1.55,6.062-1.834,6.8-4.167.152-.632.3-1.189.332-1.292h0Zm-2.871,3.208h0a3.005,3.005,0,0,1-.636.484c-1.2.648-1.333.554-1.8.574a3.639,3.639,0,0,1-1.825-.5,5.422,5.422,0,0,1-.87-.66s-.484-1.669,2.609-1.23c3.113-.554,2.576,1,2.535,1.329Z" transform="translate(-245.619 -131.479)" fill="#133643"/>
    <path id="Path_693" data-name="Path 693" d="M408.891,182.337c0,.336-.172.607-.386.607s-.386-.271-.386-.607.172-.607.386-.607S408.891,182,408.891,182.337Z" transform="translate(-255.646 -128.235)" fill="#133643"/>
    <path id="Path_694" data-name="Path 694" d="M397.491,182.337c0,.336-.172.607-.386.607s-.386-.271-.386-.607.172-.607.386-.607S397.491,182,397.491,182.337Z" transform="translate(-248.922 -128.235)" fill="#133643"/>
    <path id="Path_695" data-name="Path 695" d="M408.942,177.769a4.292,4.292,0,0,0-2.822-.1l.123.685a7.86,7.86,0,0,1,2.711.217,1.231,1.231,0,0,0-.012-.8Z" transform="translate(-254.466 -125.713)" fill="#133643"/>
    <path id="Path_696" data-name="Path 696" d="M394.389,177.776a4.324,4.324,0,0,1,2.842-.1l-.123.689a7.867,7.867,0,0,0-2.732.217A1.177,1.177,0,0,1,394.389,177.776Z" transform="translate(-247.501 -125.717)" fill="#133643"/>
    <path id="Path_697" data-name="Path 697" d="M403.217,185.629a1.541,1.541,0,0,0,.537-.115.148.148,0,0,0,.082-.2.144.144,0,0,0-.193-.078c-.135.053-.459.139-.6.053-.029,0-.066-.045-.074-.14-.053-.521.09-2.268.09-2.285a.148.148,0,0,0-.135-.16.143.143,0,0,0-.16.135,21.294,21.294,0,0,0-.09,2.342.451.451,0,0,0,.217.365A.623.623,0,0,0,403.217,185.629Z" transform="translate(-252.433 -128.811)" fill="#ff8b6b"/>
    <path id="Path_698" data-name="Path 698" d="M399.47,192.6a1.8,1.8,0,0,0,1.756,1.641,1.717,1.717,0,0,0,1.751-1.641Z" transform="translate(-250.544 -134.646)" fill="#fff"/>
    <path id="Path_699" data-name="Path 699" d="M401.657,172a31.055,31.055,0,0,1-.41,3.971l-.665-.049s.16-1.03.234-1.7.2-1.928-.369-2.084-.238-1.587-1.034-2.207a3.714,3.714,0,0,0-3.749-.074c-1.173.722-2.494-.053-3.035.074s-1.276.87-1.079,1.567-.41,1.12-.541,1.838a10.716,10.716,0,0,0,.32,2.662l-.64.127a22.685,22.685,0,0,1-.308-4.3,3.282,3.282,0,0,1,1.665-2.789,8.725,8.725,0,0,1,7.514-.242A3.281,3.281,0,0,1,401.657,172Z" transform="translate(-245.179 -120.165)" fill="#133643"/>
    <g id="gift-2">
      <rect id="Rectangle_846" data-name="Rectangle 846" width="28.195" height="21.419" transform="translate(67.149 119.726)" fill="#fc5f2d"/>
      <rect id="Rectangle_847" data-name="Rectangle 847" width="30.066" height="3.56" transform="translate(66.214 118.656)" fill="#ff8652"/>
      <rect id="Rectangle_848" data-name="Rectangle 848" width="28.195" height="1.961" transform="translate(67.149 122.22)" fill="#ed3915"/>
      <rect id="Rectangle_849" data-name="Rectangle 849" width="2.473" height="22.506" transform="translate(80.008 118.656)" fill="#fff"/>
      <rect id="Rectangle_850" data-name="Rectangle 850" width="2.469" height="17.113" transform="translate(80.008 124.049)" fill="#f1f1f1"/>
      <rect id="Rectangle_851" data-name="Rectangle 851" width="2.469" height="1.961" transform="translate(80.008 122.22)" fill="#d8d8d8"/>
    </g>
    <g id="gift-1">
      <g id="Group_49" data-name="Group 49">
        <rect id="Rectangle_855" data-name="Rectangle 855" width="2.473" height="22.506" transform="translate(103.055 97.29) rotate(24.44)" fill="#fff"/>
        <g id="Group_48" data-name="Group 48">
          <rect id="Rectangle_854" data-name="Rectangle 854" width="28.195" height="1.961" transform="translate(89.87 95.209) rotate(24.44)" fill="#6020bf"/>
          <g id="Group_47" data-name="Group 47">
            <rect id="Rectangle_852" data-name="Rectangle 852" width="28.195" height="21.419" transform="translate(90.898 92.943) rotate(24.44)" fill="#7846d3"/>
            <rect id="Rectangle_853" data-name="Rectangle 853" width="30.066" height="3.56" transform="translate(90.492 91.581) rotate(24.44)" fill="#886df2"/>
            <rect id="Rectangle_856" data-name="Rectangle 856" width="17.113" height="2.469" transform="translate(93.735 117.778) rotate(-65.56)" fill="#f1f1f1"/>
          </g>
        </g>
      </g>
      <rect id="Rectangle_857" data-name="Rectangle 857" width="1.961" height="2.469" transform="translate(100.761 102.318) rotate(-65.56)" fill="#d8d8d8"/>
    </g>
    <circle id="Ellipse_104" data-name="Ellipse 104" cx="3.757" cy="3.757" r="3.757" transform="translate(73.241 153)" fill="#133643"/>
    <path id="Path_700" data-name="Path 700" d="M220.73,432.451a2.35,2.35,0,1,1,2.35-2.35A2.35,2.35,0,0,1,220.73,432.451Z" transform="translate(-143.732 -273.343)" fill="#335464"/>
    <circle id="Ellipse_105" data-name="Ellipse 105" cx="3.757" cy="3.757" r="3.757" transform="translate(93.758 153)" fill="#133643"/>
    <path id="Path_701" data-name="Path 701" d="M270.75,432.451a2.35,2.35,0,1,1,2.35-2.35A2.35,2.35,0,0,1,270.75,432.451Z" transform="translate(-173.235 -273.343)" fill="#335464"/>
    <path id="Path_702" data-name="Path 702" d="M249.765,305.321a6.623,6.623,0,0,1-.381-.591h-7.728a.968.968,0,0,0-.931.71l-.882,3.224H184.424a.956.956,0,0,0-.948,1.087l.886,6.374a.9.9,0,0,0-.029.238.973.973,0,0,0,.131.484l1.124,8.06.262,1.911,1.058,7.588.267,1.911.935,6.715a.956.956,0,0,0,.947.82h41.018l-1.333,4.8a5.23,5.23,0,0,1-5.02,3.815h-29.25a.956.956,0,0,0,0,1.911h29.233a7.145,7.145,0,0,0,6.858-5.213l1.641-5.886h0a.593.593,0,0,0,.045-.119l1.887-6.842.533-1.911,2.112-7.588.533-1.911,2.186-7.847.267-.96h0l1.751-6.227a.655.655,0,0,0,.021-.086l.853-3.126h6.3A12.959,12.959,0,0,0,249.765,305.321Zm-17.818,31.8h0c0,.041-.033.082-.045.123l-1.308,4.7h-40.7l-.783-5.628h43.068Zm.759-2.711H188.842l-1.054-7.588h47.031Zm2.662-9.5H187.517l-1.054-7.588h51Zm2.646-9.5H186.192l-.673-4.824h53.823Z" transform="translate(-123.14 -200.783)" fill="#133643"/>
    <path id="Path_703" data-name="Path 703" d="M339.127,304.73a6.629,6.629,0,0,0,.381.591,12.076,12.076,0,0,1-1.075,1.337H335.62V304.73Z" transform="translate(-212.883 -200.783)" fill="#7846d3"/>
    <path id="Path_704" data-name="Path 704" d="M354.143,305.67a.968.968,0,0,1-.964.968h-1.427a1.285,1.285,0,0,0-.086-.82c-.611-.607-1.985-.869-1.985-1.128h3.5a.964.964,0,0,1,.964.98Z" transform="translate(-221.176 -200.76)" fill="#133643"/>
    <path id="Path_705" data-name="Path 705" d="M354.143,305.694a.964.964,0,0,1-.964.964h-1.427a1.231,1.231,0,0,0-.086-.8c-.611-.607-1.985-.87-1.985-1.128h3.5A.964.964,0,0,1,354.143,305.694Z" transform="translate(-221.176 -200.783)" fill="#7846d3"/>
    <rect id="Rectangle_858" data-name="Rectangle 858" width="13.593" height="13.593" rx="5.03" transform="translate(30.899 90.846)" fill="#fff"/>
    <path id="Path_706" data-name="Path 706" d="M126.959,283.835a2.363,2.363,0,0,1-.693,1.678l-3.146,3.146-3.15-3.146a2.383,2.383,0,0,1,0-3.351c.861-.861,2.17-.706,3.15.746.976-1.452,2.289-1.608,3.15-.746A2.359,2.359,0,0,1,126.959,283.835Z" transform="translate(-85.281 -187.161)" fill="#fc5f2d"/>
    <rect id="Rectangle_859" data-name="Rectangle 859" width="43.171" height="8.921" rx="3.63" transform="translate(28.216 34.43)" fill="#7846d3"/>
    <g id="bar-7">
      <rect id="Rectangle_860" data-name="Rectangle 860" width="5.062" height="5.062" rx="1.08" transform="translate(64.155 36.177)" fill="#a071e7"/>
    </g>
    <g id="bar-1">
      <rect id="Rectangle_861" data-name="Rectangle 861" width="29.377" height="0.96" rx="0.48" transform="translate(30.997 36.177)" fill="#a071e7"/>
    </g>
    <g id="bar-2">
      <rect id="Rectangle_862" data-name="Rectangle 862" width="29.377" height="0.96" rx="0.48" transform="translate(30.997 38.232)" fill="#a071e7"/>
    </g>
    <g id="bar-3">
      <rect id="Rectangle_863" data-name="Rectangle 863" width="29.377" height="0.96" rx="0.48" transform="translate(30.997 40.283)" fill="#a071e7"/>
    </g>
    <rect id="Rectangle_864" data-name="Rectangle 864" width="43.171" height="8.925" rx="3.63" transform="translate(28.429 47.527)" fill="#fc5f2d"/>
    <g id="bar-8">
      <rect id="Rectangle_865" data-name="Rectangle 865" width="5.062" height="5.062" rx="1.08" transform="translate(64.155 49.451)" fill="#ff8652"/>
    </g>
    <g id="bar-4">
      <rect id="Rectangle_866" data-name="Rectangle 866" width="29.377" height="0.96" rx="0.48" transform="translate(30.997 49.455)" fill="#ff8652"/>
    </g>
    <g id="bar-5">
      <rect id="Rectangle_867" data-name="Rectangle 867" width="29.377" height="0.96" rx="0.48" transform="translate(30.997 51.51)" fill="#ff8652"/>
    </g>
    <g id="bar-6">
      <rect id="Rectangle_868" data-name="Rectangle 868" width="29.377" height="0.96" rx="0.48" transform="translate(30.997 53.561)" fill="#ff8652"/>
    </g>
    <g id="dot-4">
      <path id="Path_707" data-name="Path 707" d="M368.973,81.421a2.33,2.33,0,1,1,1.651-.678A2.326,2.326,0,0,1,368.973,81.421Zm0-3.921a1.6,1.6,0,1,0,1.6,1.6A1.6,1.6,0,0,0,368.973,77.5Z" transform="translate(-231.192 -66.327)" fill="#7846d3"/>
    </g>
    <g id="dot-3">
      <path id="Path_708" data-name="Path 708" d="M359.6,55.961a2.326,2.326,0,1,1,2.326-2.317A2.326,2.326,0,0,1,359.6,55.961Zm0-3.921a1.6,1.6,0,1,0,1.131.47,1.6,1.6,0,0,0-1.131-.47Z" transform="translate(-225.653 -51.31)" fill="#7846d3"/>
    </g>
    <g id="pluse-4">
      <path id="Path_709" data-name="Path 709" d="M384.652,100.192a.365.365,0,0,1-.365-.365V98.22a.365.365,0,1,1,.726,0v1.608a.361.361,0,0,1-.361.365Z" transform="translate(-241.587 -78.74)" fill="#fc5f2d"/>
      <path id="Path_710" data-name="Path 710" d="M384.652,107.052a.361.361,0,0,1-.365-.361V105.08a.365.365,0,1,1,.726,0v1.612a.357.357,0,0,1-.361.361Z" transform="translate(-241.587 -82.786)" fill="#fc5f2d"/>
      <path id="Path_711" data-name="Path 711" d="M388.079,104.03h-1.444a.365.365,0,1,1,0-.73h1.444a.365.365,0,0,1,0,.73Z" transform="translate(-242.758 -81.975)" fill="#fc5f2d"/>
      <path id="Path_712" data-name="Path 712" d="M380.589,104.03h-1.444a.365.365,0,1,1,0-.73h1.444a.365.365,0,1,1,0,.73Z" transform="translate(-238.34 -81.975)" fill="#fc5f2d"/>
    </g>
    <g id="pluse-3">
      <path id="Path_713" data-name="Path 713" d="M343.825,72.138a.365.365,0,0,1-.365-.365V70.165a.365.365,0,1,1,.73,0v1.608A.365.365,0,0,1,343.825,72.138Z" transform="translate(-217.508 -62.216)" fill="#fc5f2d"/>
      <path id="Path_714" data-name="Path 714" d="M343.825,79a.365.365,0,0,1-.365-.365V77.025a.365.365,0,0,1,.73,0v1.612A.365.365,0,0,1,343.825,79Z" transform="translate(-217.508 -66.262)" fill="#fc5f2d"/>
      <path id="Path_715" data-name="Path 715" d="M347.249,75.95h-1.444a.365.365,0,1,1,0-.73h1.444a.365.365,0,1,1,0,.73Z" transform="translate(-218.676 -65.413)" fill="#fc5f2d"/>
      <path id="Path_716" data-name="Path 716" d="M339.763,75.95h-1.448a.365.365,0,1,1,0-.73h1.448a.365.365,0,1,1,0,.73Z" transform="translate(-214.258 -65.413)" fill="#fc5f2d"/>
    </g>
    <g id="dot-1">
      <path id="Path_717" data-name="Path 717" d="M65.426,258.311a2.326,2.326,0,1,1,2.326-2.326A2.326,2.326,0,0,1,65.426,258.311Zm0-3.921a1.589,1.589,0,1,0,1.13.465,1.6,1.6,0,0,0-1.13-.465Z" transform="translate(-52.145 -170.661)" fill="#7846d3"/>
    </g>
    <g id="dot-2">
      <path id="Path_718" data-name="Path 718" d="M79.076,282.411a2.326,2.326,0,1,1,2.326-2.326A2.326,2.326,0,0,1,79.076,282.411Zm0-3.921a1.6,1.6,0,1,0,1.6,1.6,1.6,1.6,0,0,0-1.6-1.6Z" transform="translate(-60.195 -184.876)" fill="#fc5f2d"/>
    </g>
    <g id="pluse-2">
      <path id="Path_719" data-name="Path 719" d="M92.785,303.644a.365.365,0,0,1-.365-.365v-1.6a.365.365,0,0,1,.73,0v1.608A.365.365,0,0,1,92.785,303.644Z" transform="translate(-69.438 -198.766)" fill="#7846d3"/>
      <path id="Path_720" data-name="Path 720" d="M92.785,310.508a.365.365,0,0,1-.365-.365v-1.608a.365.365,0,1,1,.73,0v1.616A.361.361,0,0,1,92.785,310.508Z" transform="translate(-69.438 -202.812)" fill="#7846d3"/>
      <path id="Path_721" data-name="Path 721" d="M96.219,307.43H94.775a.365.365,0,0,1,0-.73h1.444a.365.365,0,1,1,0,.73Z" transform="translate(-70.612 -201.945)" fill="#7846d3"/>
      <path id="Path_722" data-name="Path 722" d="M88.729,307.43H87.285a.365.365,0,0,1,0-.73h1.444a.365.365,0,1,1,0,.73Z" transform="translate(-66.194 -201.945)" fill="#7846d3"/>
    </g>
    <g id="pluse-1">
      <path id="Path_723" data-name="Path 723" d="M51.965,275.538a.365.365,0,0,1-.365-.365v-1.608a.365.365,0,1,1,.73,0v1.6a.365.365,0,0,1-.365.369Z" transform="translate(-45.361 -182.186)" fill="#fc5f2d"/>
      <path id="Path_724" data-name="Path 724" d="M51.965,282.427a.361.361,0,0,1-.365-.361v-1.591a.365.365,0,0,1,.73,0v1.612A.361.361,0,0,1,51.965,282.427Z" transform="translate(-45.361 -186.262)" fill="#fc5f2d"/>
      <path id="Path_725" data-name="Path 725" d="M55.393,279.32H53.945a.365.365,0,1,1,0-.73h1.448a.365.365,0,0,1,0,.73Z" transform="translate(-46.529 -185.365)" fill="#fc5f2d"/>
      <path id="Path_726" data-name="Path 726" d="M47.911,279.32H46.475a.365.365,0,1,1,0-.73h1.436a.365.365,0,1,1,0,.73Z" transform="translate(-42.124 -185.365)" fill="#fc5f2d"/>
    </g>
  </g>
</svg>
