<svg xmlns="http://www.w3.org/2000/svg" xmlns:xlink="http://www.w3.org/1999/xlink" width="162.21" height="162.624" viewBox="0 0 162.21 162.624">
  <defs>
    <linearGradient id="linear-gradient" x1="1.13" y1="1.295" x2="0.236" y2="0.19" gradientUnits="objectBoundingBox">
      <stop offset="0" stop-color="#dae3fe"/>
      <stop offset="1" stop-color="#e9effd"/>
    </linearGradient>
    <linearGradient id="linear-gradient-2" x1="0" y1="0.5" x2="1" y2="0.5" xlink:href="#linear-gradient"/>
    <linearGradient id="linear-gradient-3" y1="0.5" x2="1" y2="0.5" gradientUnits="objectBoundingBox">
      <stop offset="0" stop-color="#09005d"/>
      <stop offset="1" stop-color="#1a0f91"/>
    </linearGradient>
    <linearGradient id="linear-gradient-4" x1="0.519" y1="0.351" x2="1.392" y2="-6.871" xlink:href="#linear-gradient-3"/>
    <linearGradient id="linear-gradient-5" x1="1.151" y1="-0.102" x2="0.182" y2="0.849" gradientUnits="objectBoundingBox">
      <stop offset="0" stop-color="#ff928e"/>
      <stop offset="1" stop-color="#fe7062"/>
    </linearGradient>
    <linearGradient id="linear-gradient-6" x1="1.035" y1="1.153" x2="0.157" y2="0.22" xlink:href="#linear-gradient-5"/>
    <linearGradient id="linear-gradient-7" x1="1.027" y1="-0.17" x2="0.201" y2="0.881" xlink:href="#linear-gradient-5"/>
    <linearGradient id="linear-gradient-8" x1="1.32" y1="1.477" x2="0.244" y2="0.207" xlink:href="#linear-gradient-5"/>
    <linearGradient id="linear-gradient-9" x1="19.964" y1="0.5" x2="20.964" y2="0.5" gradientUnits="objectBoundingBox">
      <stop offset="0" stop-color="#4f52ff"/>
      <stop offset="1" stop-color="#4042e2"/>
    </linearGradient>
    <linearGradient id="linear-gradient-10" x1="20.543" y1="0.5" x2="21.543" y2="0.5" xlink:href="#linear-gradient-3"/>
    <linearGradient id="linear-gradient-11" x1="70.861" y1="0.5" x2="71.861" y2="0.5" gradientUnits="objectBoundingBox">
      <stop offset="0" stop-color="#febbba"/>
      <stop offset="1" stop-color="#ff928e"/>
    </linearGradient>
    <linearGradient id="linear-gradient-12" x1="52.1" y1="0.499" x2="53.101" y2="0.499" xlink:href="#linear-gradient-9"/>
    <linearGradient id="linear-gradient-13" x1="35.495" y1="0.5" x2="36.495" y2="0.5" xlink:href="#linear-gradient-3"/>
    <linearGradient id="linear-gradient-14" x1="59.336" y1="0.5" x2="60.337" y2="0.5" xlink:href="#linear-gradient-11"/>
    <linearGradient id="linear-gradient-15" x1="6.187" y1="1.933" x2="7.851" y2="0.742" xlink:href="#linear-gradient-9"/>
    <linearGradient id="linear-gradient-16" x1="0.622" y1="0.316" x2="2.127" y2="-0.678" xlink:href="#linear-gradient-9"/>
    <linearGradient id="linear-gradient-17" x1="42.785" y1="5.021" x2="43.143" y2="4.213" xlink:href="#linear-gradient-3"/>
    <linearGradient id="linear-gradient-18" x1="0.867" y1="0.046" x2="2.198" y2="-1.547" xlink:href="#linear-gradient-11"/>
    <linearGradient id="linear-gradient-19" x1="1.278" y1="0.17" x2="4.599" y2="-1.559" xlink:href="#linear-gradient-9"/>
    <linearGradient id="linear-gradient-20" x1="0.329" y1="0.656" x2="4.776" y2="-1.376" xlink:href="#linear-gradient-9"/>
    <linearGradient id="linear-gradient-21" x1="21.15" y1="0.5" x2="22.15" y2="0.5" xlink:href="#linear-gradient-11"/>
    <linearGradient id="linear-gradient-22" x1="29.041" y1="-0.004" x2="29.026" y2="1.888" xlink:href="#linear-gradient-11"/>
    <linearGradient id="linear-gradient-23" x1="4.039" y1="0.5" x2="5.039" y2="0.5" xlink:href="#linear-gradient-3"/>
    <linearGradient id="linear-gradient-24" x1="3.954" y1="0.5" x2="4.954" y2="0.5" xlink:href="#linear-gradient-3"/>
    <linearGradient id="linear-gradient-25" x1="32.307" y1="13.58" x2="30.787" y2="14.918" xlink:href="#linear-gradient-11"/>
    <linearGradient id="linear-gradient-26" x1="13.608" y1="0.422" x2="16.578" y2="0.703" xlink:href="#linear-gradient-3"/>
    <linearGradient id="linear-gradient-27" x1="4.149" y1="-3.055" x2="-3.803" y2="4.735" xlink:href="#linear-gradient-11"/>
    <linearGradient id="linear-gradient-28" x1="0.799" y1="-1.214" x2="2.012" y2="-8.578" xlink:href="#linear-gradient-11"/>
    <linearGradient id="linear-gradient-29" x1="59.072" y1="0.5" x2="60.072" y2="0.5" xlink:href="#linear-gradient-11"/>
  </defs>
  <g id="our-services__item-5" transform="translate(0 0.024)">
    <path id="Path_1111" data-name="Path 1111" d="M642.486,591.107a57.024,57.024,0,0,1-8.722,7.344c-28.452,20.415-62.118,14.462-69.273,13.01-10.566-2.149-30.988-6.294-45.754-23.658-22.339-26.27-18.86-67.658-1.533-94.979,3.169-4.995,19.912-32.734,53.94-37.183,20.594-2.692,44.6,2.738,61.983,17.3C669.62,503.516,667.022,565.277,642.486,591.107Z" transform="translate(-500.5 -455)" fill="url(#linear-gradient)"/>
    <path id="Path_1112" data-name="Path 1112" d="M2405.341,840.749a.909.909,0,0,0-1.759-.116c-2.752,8.7-10.687,31.3-22.135,43.053-18.644,19.137-31.673,50.777-20.687,67.746C2360.758,951.433,2423.711,941.97,2405.341,840.749Z" transform="translate(-2246.49 -817.665)" fill="#91b3fa"/>
    <path id="Path_1113" data-name="Path 1113" d="M2473.876,1062.637c-.049.284-.113.515-.169.766l-.183.735-.384,1.466c-.262.974-.539,1.946-.816,2.916q-.841,2.909-1.749,5.8c-1.212,3.851-2.529,7.667-3.9,11.466s-2.846,7.56-4.4,11.289-3.168,7.434-4.9,11.084a193.868,193.868,0,0,1-11.635,21.262c-2.2,3.389-4.5,6.724-6.98,9.917a104.882,104.882,0,0,1-8,9.108.16.16,0,0,1-.232-.22h0a117.455,117.455,0,0,0,7.7-9.286c2.417-3.216,4.646-6.569,6.782-9.975s4.134-6.9,6.053-10.439,3.686-7.153,5.435-10.778c3.468-7.266,6.546-14.714,9.417-22.24q2.142-5.65,4.066-11.38.966-2.863,1.876-5.745l.883-2.89.426-1.448.205-.726c.063-.239.135-.495.183-.706l.007-.035a.158.158,0,0,1,.31.058Z" transform="translate(-2315.956 -1027.203)" fill="#bdd0fb"/>
    <path id="Path_1114" data-name="Path 1114" d="M2348.928,484.434a.869.869,0,0,0-1.644.375c-.149,8.733-1.259,31.618-8.554,45.52-11.878,22.636-15.193,55.206-.49,67.77C2338.241,598.1,2393.389,572.248,2348.928,484.434Z" transform="translate(-2219.863 -482.299)" fill="#bdd0fb"/>
    <path id="Path_1115" data-name="Path 1115" d="M2528.653,697.258c.049.272.068.5.1.743l.076.722.14,1.443c.084.962.154,1.925.223,2.889q.2,2.891.331,5.785c.174,3.859.242,7.724.252,11.586s-.076,7.728-.25,11.589-.41,7.72-.769,11.57a185.81,185.81,0,0,1-3.485,22.927c-.871,3.769-1.84,7.518-3.024,11.2a100.291,100.291,0,0,1-4.205,10.809.155.155,0,0,1-.284-.125h0a112.519,112.519,0,0,0,3.875-10.873c1.117-3.683,2.019-7.427,2.823-11.189s1.452-7.56,2.016-11.367.968-7.639,1.351-11.47c.735-7.666,1.059-15.371,1.173-23.076q.074-5.78-.077-11.561-.069-2.889-.2-5.778l-.153-2.886-.095-1.443-.053-.719c-.022-.235-.04-.489-.067-.693l0-.035a.154.154,0,0,1,.3-.048Z" transform="translate(-2398.147 -683.096)" fill="url(#linear-gradient-2)"/>
    <path id="Path_1116" data-name="Path 1116" d="M835.779,521.229c-.617,24.906-2.62,110.815-1.664,141.26a6.113,6.113,0,0,0,5.91,5.92c15.952.523,61.84,1.845,87.931.751a10.292,10.292,0,0,0,9.869-10.068c.542-26.143,1.738-99.67-1.1-133.353a8.4,8.4,0,0,0-7.538-7.652c-17.373-1.738-63.511-5.986-86.052-4.523A7.872,7.872,0,0,0,835.779,521.229Z" transform="translate(-812.062 -509.901)" fill="url(#linear-gradient-3)"/>
    <path id="Path_1117" data-name="Path 1117" d="M913.817,674.3c-.859,20.1-3.568,86.981-2.708,111.711a7,7,0,0,0,6.585,6.749c14.868.871,53,2.788,74.8,1.042a7.864,7.864,0,0,0,7.219-7.422c1.1-20.509,4.278-82.782,3.454-107.234a7.731,7.731,0,0,0-7.041-7.434c-16.083-1.444-57.388-4.879-75.918-3.869a6.76,6.76,0,0,0-6.393,6.458Z" transform="translate(-884.667 -655.331)" fill="#91b3fa"/>
    <path id="Path_1118" data-name="Path 1118" d="M1516.66,569.391h0a1.434,1.434,0,0,0,1.359,1.435c3.767.2,14.381.755,19.125,1.031a1.436,1.436,0,0,0,1.49-1.706l-.03-.157a1.436,1.436,0,0,0-1.278-1.161,183.318,183.318,0,0,0-19.291-.88A1.433,1.433,0,0,0,1516.66,569.391Z" transform="translate(-1455.204 -561.376)" fill="url(#linear-gradient-4)"/>
    <g id="bar-1">
      <rect id="Rectangle_901" data-name="Rectangle 901" width="60.06" height="3.466" rx="1.733" transform="translate(36.411 26.506)" fill="#bdd0fb"/>
    </g>
    <g id="bar-2">
      <rect id="Rectangle_902" data-name="Rectangle 902" width="49.379" height="3.466" rx="1.733" transform="translate(36.411 34.657)" fill="#bdd0fb"/>
    </g>
    <g id="bar-3">
      <rect id="Rectangle_903" data-name="Rectangle 903" width="54.138" height="3.466" rx="1.733" transform="translate(36.411 42.806)" fill="#bdd0fb"/>
    </g>
    <path id="Path_1119" data-name="Path 1119" d="M2106.56,1113.462l28.493-54.587h-5.838a1.276,1.276,0,0,1-.987-2.084l30.368-37.012a2.142,2.142,0,0,1,3.794,1.484l-2.135,36.194a3.616,3.616,0,0,1-4.022,3.38l-4.07-.464-28.27,61.223a4.5,4.5,0,0,1-4.087,2.614h-9.794Z" transform="translate(-2010.845 -986.258)" fill="url(#linear-gradient-5)"/>
    <path id="Path_1120" data-name="Path 1120" d="M1701,1861.342l20.115,44.683a7.376,7.376,0,0,0,6.726,4.348h10.37a3.787,3.787,0,0,0,3.311-1.949l.369-.665h0a2.963,2.963,0,0,1-2.641-1.617l-26.8-52.513Z" transform="translate(-1628.839 -1772.422)" fill="url(#linear-gradient-6)"/>
    <path id="Path_1121" data-name="Path 1121" d="M1066.537,1774.743h0a4.4,4.4,0,0,0-6.388,1.016l-29.575,44.432a12.778,12.778,0,0,1-10.636,5.7h-4.161l-3.387-9.757s27.494-42.158,34.581-48.535c0,0,7.057-6.361,14.016-1.552a11.613,11.613,0,0,1,4.086,5.15Z" transform="translate(-980.222 -1688.229)" fill="url(#linear-gradient-7)"/>
    <path id="Path_1122" data-name="Path 1122" d="M458.53,2089.851a22.337,22.337,0,0,1,14.547-7.151s4.557,1.553,13.634,17.818,15.1,23.683,22.173,19.631l-.585.972a10.662,10.662,0,0,1-9.134,5.162h-3.913c-4.305,0-8.044-6.631-10.559-10.127C477.628,2106.335,462.87,2091.376,458.53,2089.851Z" transform="translate(-458.53 -1988.187)" fill="url(#linear-gradient-8)"/>
    <path id="Path_1123" data-name="Path 1123" d="M3004.081,1217.372h-.033a.293.293,0,0,1-.2-.109.289.289,0,0,1-.062-.216l.2-1.768a.294.294,0,0,1,.585.067l-.2,1.767A.3.3,0,0,1,3004.081,1217.372Z" transform="translate(-2855.961 -1170.909)" fill="#fff" opacity="0.68"/>
    <path id="Path_1124" data-name="Path 1124" d="M2567.623,1096.657a.295.295,0,0,1-.232-.474l25.077-32.582a1.064,1.064,0,0,1,1.9.769l-.443,3.906a.294.294,0,0,1-.584-.066l.442-3.906a.475.475,0,0,0-.849-.343l-25.076,32.582A.3.3,0,0,1,2567.623,1096.657Z" transform="translate(-2444.853 -1027.886)" fill="#fff" opacity="0.68"/>
    <path id="Path_1125" data-name="Path 1125" d="M1588.131,1892.011a.289.289,0,0,1-.164-.05.294.294,0,0,1-.079-.407l12.969-19.225a2.3,2.3,0,0,1,3.982.3.294.294,0,1,1-.532.252,1.71,1.71,0,0,0-2.962-.225l-12.969,19.225A.293.293,0,0,1,1588.131,1892.011Z" transform="translate(-1522.249 -1789.082)" fill="#fff" opacity="0.68"/>
    <path id="Path_1126" data-name="Path 1126" d="M1530.092,2284.1a.294.294,0,0,1-.243-.459l.831-1.233a.294.294,0,0,1,.488.329l-.832,1.234A.292.292,0,0,1,1530.092,2284.1Z" transform="translate(-1467.58 -2176.172)" fill="#fff" opacity="0.68"/>
    <path id="Path_1127" data-name="Path 1127" d="M852.4,3236.729c-1.879.163-5.139.427-7.71.54a7.364,7.364,0,0,1-2.947-.291c0,.059,0,.114,0,.163a.532.532,0,0,0,.5.5,90.552,90.552,0,0,0,10.1.01.379.379,0,0,0,.308-.569A3.088,3.088,0,0,0,852.4,3236.729Z" transform="translate(-819.484 -3075.193)" fill="url(#linear-gradient-9)"/>
    <path id="Path_1128" data-name="Path 1128" d="M844.7,3175.723c2.571-.113,5.831-.376,7.71-.539-1.847-2.265-7.71-3.794-7.71-3.794H843.05a6.942,6.942,0,0,0-1.291,4.044A7.347,7.347,0,0,0,844.7,3175.723Z" transform="translate(-819.501 -3013.648)" fill="url(#linear-gradient-10)"/>
    <path id="Path_1129" data-name="Path 1129" d="M859.17,3124.832l.155,3.067a.7.7,0,0,0,.6.658,2.741,2.741,0,0,0,1.244-.1.831.831,0,0,0,.557-.64l.535-2.985Z" transform="translate(-835.901 -2969.791)" fill="url(#linear-gradient-11)"/>
    <path id="Path_1130" data-name="Path 1130" d="M466.684,3229.608a1.485,1.485,0,0,1-1.336-.988l0,.013a1.057,1.057,0,0,0,.714,1.206,4.641,4.641,0,0,0,1.975.31,1.964,1.964,0,0,0,1.481-.683l0-.006A4.994,4.994,0,0,1,466.684,3229.608Z" transform="translate(-464.923 -3067.554)" fill="url(#linear-gradient-12)"/>
    <path id="Path_1131" data-name="Path 1131" d="M471,3124.525h-1.366c-2.08-.043-3.386,4.345-3.813,6.044a1.481,1.481,0,0,0,1.336.988,4.97,4.97,0,0,0,2.834-.151,13.033,13.033,0,0,0,1.949-4.909A1.719,1.719,0,0,0,471,3124.525Z" transform="translate(-465.397 -2969.505)" fill="url(#linear-gradient-13)"/>
    <path id="Path_1132" data-name="Path 1132" d="M521.859,3075.53l-.755,3.015a.819.819,0,0,0,.426.929,2.9,2.9,0,0,0,1.568.38.684.684,0,0,0,.558-.456l1.113-3.173Z" transform="translate(-517.447 -2923.355)" fill="url(#linear-gradient-14)"/>
    <path id="Path_1133" data-name="Path 1133" d="M518.93,2395.091c.943.837,4.012.948,4.012.948,11.054-26.53,15.575-30.3,15.575-30.3-1.6,10.013-.257,32.183-.257,32.183a6.634,6.634,0,0,0,4.176,0,170.859,170.859,0,0,1,5.645-41.962c-7.471-.167-11.442-2.724-12.741-3.75C529.112,2362.25,518.93,2395.091,518.93,2395.091Z" transform="translate(-515.422 -2242.046)" fill="url(#linear-gradient-15)"/>
    <path id="Path_1134" data-name="Path 1134" d="M792.086,1823.962c-1.414,7.053-.907,19.678-.574,25.439.094,1.618-1.036,3.861-1.95,5.393a.481.481,0,0,0,.194.676,33.322,33.322,0,0,0,12.712,3.524.856.856,0,0,0,.861-.639,167.108,167.108,0,0,1,9.625-27.251C807.244,1821.98,792.086,1823.962,792.086,1823.962Z" transform="translate(-770.271 -1744.306)" fill="url(#linear-gradient-16)"/>
    <path id="Path_1135" data-name="Path 1135" d="M863.434,2503.352a.353.353,0,0,1-.3-.538,11.087,11.087,0,0,1,4.383-3.805.354.354,0,0,1,.308.639,10.576,10.576,0,0,0-4.086,3.536A.355.355,0,0,1,863.434,2503.352Z" transform="translate(-839.584 -2380.285)" fill="url(#linear-gradient-17)"/>
    <path id="Path_1136" data-name="Path 1136" d="M681.41,2167.513a24.267,24.267,0,0,0,4.481,10.677l1.02-.83a31.52,31.52,0,0,1-.508-10.2A12.192,12.192,0,0,0,681.41,2167.513Z" transform="translate(-668.465 -2067.614)" fill="url(#linear-gradient-18)"/>
    <path id="Path_1137" data-name="Path 1137" d="M688.91,1835.613l-1.579-8.7s-10.553,8.067-8.87,20.243a12.233,12.233,0,0,1,4.995-.359A17.074,17.074,0,0,1,688.91,1835.613Z" transform="translate(-665.516 -1747.254)" fill="url(#linear-gradient-19)"/>
    <path id="Path_1138" data-name="Path 1138" d="M1127.373,1949.8l-4.073,8.77c.658,5.3,3.5,7.586,6.571,8.464a18.6,18.6,0,0,1,1.368-5.713C1127.319,1957.278,1127.373,1949.8,1127.373,1949.8Z" transform="translate(-1084.691 -1863.007)" fill="url(#linear-gradient-20)"/>
    <path id="Path_1139" data-name="Path 1139" d="M1237.818,2148.23a18.6,18.6,0,0,0-1.368,5.713c8.185,3.176,10.35-2.982,10.35-2.982l-1.513-.267A8.577,8.577,0,0,1,1237.818,2148.23Z" transform="translate(-1191.269 -2049.912)" fill="url(#linear-gradient-21)"/>
    <path id="Path_1140" data-name="Path 1140" d="M1004.415,1731.671l-1.964,7.229a1.406,1.406,0,0,1-1.881.935,28.36,28.36,0,0,1-2.834-1.294,1.9,1.9,0,0,1-.669-2.723l4.089-6.1Z" transform="translate(-965.486 -1655.709)" fill="url(#linear-gradient-22)"/>
    <path id="Path_1141" data-name="Path 1141" d="M620.848,2111.94l-50.39,18.34a3.857,3.857,0,0,0-2.193,5.222l.153.337a3.588,3.588,0,0,0,4.771,1.77l48.929-22.635Z" transform="translate(-561.565 -2015.73)" fill="url(#linear-gradient-23)"/>
    <g id="search">
      <g id="Group_46" data-name="Group 46" transform="translate(57.568 60.752)" opacity="0.2">
        <ellipse id="Ellipse_112" data-name="Ellipse 112" cx="24.875" cy="24.426" rx="24.875" ry="24.426" fill="#bdd0fb"/>
      </g>
      <g id="Group_50" data-name="Group 50">
        <path id="Path_1142" data-name="Path 1142" d="M1429.1,1454a27.185,27.185,0,1,0,27.679,27.181A27.433,27.433,0,0,0,1429.1,1454Zm0,50.366a23.191,23.191,0,1,1,23.613-23.187,23.4,23.4,0,0,1-23.613,23.187Z" transform="translate(-1346.658 -1396.002)" fill="url(#linear-gradient-24)"/>
        <path id="Path_1143" data-name="Path 1143" d="M1431.875,1511.865a.186.186,0,0,1-.185-.163c-.083-.648-.14-1.3-.174-1.948a.186.186,0,0,1,.174-.195.175.175,0,0,1,.2.174c.031.635.087,1.281.169,1.92a.186.186,0,0,1-.161.208Zm.191-7.6a.159.159,0,0,1-.032,0,.186.186,0,0,1-.151-.216,25.057,25.057,0,0,1,1.493-5.111h0a25.859,25.859,0,0,1,24.07-15.936,26.216,26.216,0,0,1,13.939,3.984.186.186,0,0,1-.2.315,25.85,25.85,0,0,0-13.742-3.929,25.5,25.5,0,0,0-23.73,15.7h0a24.624,24.624,0,0,0-1.471,5.033A.186.186,0,0,1,1432.066,1504.262Z" transform="translate(-1375.006 -1423.317)" fill="#bdd0fb"/>
      </g>
    </g>
    <path id="Path_1144" data-name="Path 1144" d="M1101.379,1649.931c.018.125-1.64,8.247-1.64,8.247l-4.619-1.046.428-7.935S1101.08,1647.854,1101.379,1649.931Z" transform="translate(-1058.148 -1579.46)" fill="url(#linear-gradient-25)"/>
    <path id="Path_1145" data-name="Path 1145" d="M1051,1606.865l-.552,4.159a.619.619,0,0,0,0,.16c.047.325.291,1.436,1.41,1.118a5.242,5.242,0,0,1,2.593-.339.586.586,0,0,1,.4.678,25.393,25.393,0,0,1-1.063,3.786.584.584,0,0,1-.709.349,18.92,18.92,0,0,1-4.072-1.667.584.584,0,0,1-.285-.527c.044-1.05.167-4.24.063-5.136-.1-.84-1.127-1.343-1.575-1.523a.575.575,0,0,1-.321-.321,1.519,1.519,0,0,1,1.022-2.216.586.586,0,0,0,.371-.759,1.522,1.522,0,0,1,.854-2.1,2.148,2.148,0,0,1,2.562.617.586.586,0,0,0,.747.088.463.463,0,0,1,.528.018.578.578,0,0,0,.818-.248,1.749,1.749,0,0,1,2.032-1.013c2.071.354,2.305,2.648,1.759,3.992s-2.769.833-3.883.155a2.51,2.51,0,0,0-2.426.313A.583.583,0,0,0,1051,1606.865Z" transform="translate(-1012.566 -1535.357)" fill="url(#linear-gradient-26)"/>
    <path id="Path_1146" data-name="Path 1146" d="M1047.476,1704.583s.851-2.381-.024-2.967-2.169-.28-1.884,1.446C1045.923,1705.209,1047.476,1704.583,1047.476,1704.583Z" transform="translate(-1011.436 -1628.98)" fill="url(#linear-gradient-27)"/>
    <path id="Path_1147" data-name="Path 1147" d="M753.7,2336.177l4.762-.387,2.063,1.9s-.488.675-2.014.286a21.844,21.844,0,0,0-3.616-.483s-2.107.95-2.132-.828Z" transform="translate(-735.672 -2226.579)" fill="url(#linear-gradient-28)"/>
    <path id="Path_1148" data-name="Path 1148" d="M1396.224,2156.166c.412.322,1.824-.349,2.687-.814a.993.993,0,0,0,.481-1.175c-.208-.655-.554-1.5-.981-1.608C1397.7,2152.392,1394.528,2154.84,1396.224,2156.166Z" transform="translate(-1341.301 -2053.991)" fill="url(#linear-gradient-29)"/>
    <path id="Path_1149" data-name="Path 1149" d="M587.809,2412.523a.2.2,0,0,1-.058-.01c-1.968-.681-2.426-1.844-2.464-2.7a3,3,0,0,1,1.955-2.889l6.051-2.359a.187.187,0,0,1,.135.348l-6.051,2.359a2.626,2.626,0,0,0-1.717,2.526c.046,1.077.791,1.872,2.213,2.364a.186.186,0,0,1-.058.361Z" transform="translate(-577.923 -2291.347)" fill="#bdd0fb"/>
    <path id="Path_1150" data-name="Path 1150" d="M753.347,2387.45a.185.185,0,0,1-.068-.359l.784-.306a.187.187,0,0,1,.135.349l-.784.305A.181.181,0,0,1,753.347,2387.45Z" transform="translate(-736.048 -2274.6)" fill="#bdd0fb"/>
  </g>
</svg>
