<svg xmlns="http://www.w3.org/2000/svg" width="192.558" height="174.399" viewBox="0 0 192.558 174.399">
  <g id="process-in-work" transform="translate(65.378 185.091) rotate(-120)">
    <path id="Path_191" data-name="Path 191" d="M922.005,528.045a37.651,37.651,0,0,1-1.175-8.059h3.358a35.327,35.327,0,0,0,1.074,7.354Zm2.72-15.614-3.358-.537a43.035,43.035,0,0,1,2.082-7.858l3.19,1.175a39.517,39.517,0,0,0-1.88,7.219Zm5.138-13.969-2.921-1.713a42.675,42.675,0,0,1,4.8-6.548l2.519,2.25A38.878,38.878,0,0,0,929.863,498.462Zm10.074-11.014-1.981-2.72a35.52,35.52,0,0,1,6.951-3.962l1.309,3.123a33.92,33.92,0,0,0-6.447,3.593Zm59.837-5.339v-3.358a65.367,65.367,0,0,0,7.589-.5l.437,3.358c-2.72.269-5.305.437-8.193.5Zm-7.891-.2q-3.929-.235-7.858-.6l.3-3.358c2.586.235,5.138.437,7.723.6Zm-38.381-.369-.739-3.358a56.214,56.214,0,0,1,7.925-1.142l.269,3.358a49.773,49.773,0,0,0-7.623,1.142Zm22.8-.907c-2.585,0-5.137-.336-7.723-.369V476.9c2.653,0,5.272.2,7.891.369Zm39.354-.672-.94-3.358a38.3,38.3,0,0,0,5-1.813l1.846-.94,1.645,2.955a20.725,20.725,0,0,1-2.115,1.075,40.3,40.3,0,0,1-5.675,2.082Zm14.2-7.891-2.351-2.451a28.759,28.759,0,0,0,4.668-5.675l2.888,1.78a32.337,32.337,0,0,1-5.373,6.346Zm8.5-13.935-3.358-.839a18.026,18.026,0,0,0,.638-4.735,18.416,18.416,0,0,0,0-2.35l3.358-.47a19.863,19.863,0,0,1,.2,2.821,21.564,21.564,0,0,1-1.007,5.574Zm-5.238-14.573a28.7,28.7,0,0,0-4.634-5.675l2.384-2.418a32.3,32.3,0,0,1,5.171,6.346Zm-10.376-10.812c-2.015-1.78-4-3.526-5.809-5.44l2.451-2.351a68.531,68.531,0,0,0,5.574,5.2ZM1012.03,420.66a25.788,25.788,0,0,1-2.619-7.857l3.358-.571a24.777,24.777,0,0,0,2.283,6.884Zm.537-15.715-3.358-.4a29.21,29.21,0,0,1,2.048-7.958l3.123,1.276a28.171,28.171,0,0,0-1.981,7.085Zm5.507-13.432-2.619-2.149a25.919,25.919,0,0,1,5.574-5.1l1.881,2.821a22.328,22.328,0,0,0-5,4.5Z" transform="translate(-908.473 -384.28)"/>
    <path id="Path_192" data-name="Path 192" d="M27.3,39.907,24.445,38.06l-9.033,14.1L2.015,42.157,0,44.877,16.319,57.066Z" transform="translate(0 89.788)"/>
  </g>
</svg>
