<svg xmlns="http://www.w3.org/2000/svg" width="747.481" height="210.95" viewBox="0 0 747.481 210.95">
  <g id="testimonials-bg" transform="translate(-596.481 -4834)">
    <g id="dot-7">
      <path id="Path_1210" data-name="Path 1210" d="M3.5,0A3.5,3.5,0,1,1,0,3.5,3.5,3.5,0,0,1,3.5,0Z" transform="translate(1229 4849)" fill="rgba(255,255,255,0.6)"/>
      <g id="Group_53" data-name="Group 53">
        <path id="Path_1209" data-name="Path 1209" d="M3.5,0A3.5,3.5,0,1,1,0,3.5,3.5,3.5,0,0,1,3.5,0Z" transform="translate(901 4834)" fill="rgba(255,255,255,0.6)"/>
      </g>
    </g>
    <g id="dot-6">
      <g id="Path_1208" data-name="Path 1208" transform="translate(1070.938 4848.428) rotate(-60)" fill="none">
        <path d="M6.264,3.039a2,2,0,0,1,3.473,0l4.554,7.969A2,2,0,0,1,12.554,14H3.446A2,2,0,0,1,1.71,11.008Z" stroke="none"/>
        <path d="M 7.999999046325684 3.031130790710449 C 7.825509071350098 3.031130790710449 7.391609191894531 3.080230712890625 7.131749153137207 3.534991264343262 L 2.578108787536621 11.50386047363281 C 2.320239067077637 11.95513153076172 2.494539260864258 12.35217094421387 2.581449508666992 12.50193119049072 C 2.66835880279541 12.6516809463501 2.926609039306641 13.00000095367432 3.446358680725098 13.00000095367432 L 12.55363845825195 13.00000095367432 C 13.07338905334473 13.00000095367432 13.33163928985596 12.6516809463501 13.41854858398438 12.50193119049072 C 13.50545883178711 12.35217094421387 13.67975902557373 11.95513153076172 13.42188930511475 11.50386047363281 L 8.86824893951416 3.534991264343262 C 8.608379364013672 3.080230712890625 8.17448902130127 3.031130790710449 7.999999046325684 3.031130790710449 M 7.999999046325684 2.031128883361816 C 8.676296234130859 2.031128883361816 9.352594375610352 2.367035865783691 9.736488342285156 3.038850784301758 L 14.29012870788574 11.00772094726562 C 15.0520191192627 12.34103107452393 14.08928871154785 14.00000095367432 12.55363845825195 14.00000095367432 L 3.446358680725098 14.00000095367432 C 1.910709381103516 14.00000095367432 0.9479789733886719 12.34103107452393 1.709869384765625 11.00772094726562 L 6.263508796691895 3.038850784301758 C 6.647403717041016 2.367035865783691 7.323701858520508 2.031128883361816 7.999999046325684 2.031128883361816 Z" stroke="none" fill="rgba(255,255,255,0.51)"/>
      </g>
    </g>
    <g id="dot-5">
      <g id="Path_1207" data-name="Path 1207" transform="translate(1313.938 4930.428) rotate(-60)" fill="none">
        <path d="M6.264,3.039a2,2,0,0,1,3.473,0l4.554,7.969A2,2,0,0,1,12.554,14H3.446A2,2,0,0,1,1.71,11.008Z" stroke="none"/>
        <path d="M 7.999999046325684 3.031130790710449 C 7.825509071350098 3.031130790710449 7.391609191894531 3.080230712890625 7.131749153137207 3.534991264343262 L 2.578108787536621 11.50386047363281 C 2.320239067077637 11.95513153076172 2.494539260864258 12.35217094421387 2.581449508666992 12.50193119049072 C 2.66835880279541 12.6516809463501 2.926609039306641 13.00000095367432 3.446358680725098 13.00000095367432 L 12.55363845825195 13.00000095367432 C 13.07338905334473 13.00000095367432 13.33163928985596 12.6516809463501 13.41854858398438 12.50193119049072 C 13.50545883178711 12.35217094421387 13.67975902557373 11.95513153076172 13.42188930511475 11.50386047363281 L 8.86824893951416 3.534991264343262 C 8.608379364013672 3.080230712890625 8.17448902130127 3.031130790710449 7.999999046325684 3.031130790710449 M 7.999999046325684 2.031128883361816 C 8.676296234130859 2.031128883361816 9.352594375610352 2.367035865783691 9.736488342285156 3.038850784301758 L 14.29012870788574 11.00772094726562 C 15.0520191192627 12.34103107452393 14.08928871154785 14.00000095367432 12.55363845825195 14.00000095367432 L 3.446358680725098 14.00000095367432 C 1.910709381103516 14.00000095367432 0.9479789733886719 12.34103107452393 1.709869384765625 11.00772094726562 L 6.263508796691895 3.038850784301758 C 6.647403717041016 2.367035865783691 7.323701858520508 2.031128883361816 7.999999046325684 2.031128883361816 Z" stroke="none" fill="rgba(255,255,255,0.51)"/>
      </g>
    </g>
    <g id="dot--4">
      <g id="Path_1206" data-name="Path 1206" transform="translate(594 5031.428) rotate(-60)" fill="none">
        <path d="M6.264,3.039a2,2,0,0,1,3.473,0l4.554,7.969A2,2,0,0,1,12.554,14H3.446A2,2,0,0,1,1.71,11.008Z" stroke="none"/>
        <path d="M 7.999999046325684 3.031130790710449 C 7.825509071350098 3.031130790710449 7.391609191894531 3.080230712890625 7.131749153137207 3.534991264343262 L 2.578108787536621 11.50386047363281 C 2.320239067077637 11.95513153076172 2.494539260864258 12.35217094421387 2.581449508666992 12.50193119049072 C 2.66835880279541 12.6516809463501 2.926609039306641 13.00000095367432 3.446358680725098 13.00000095367432 L 12.55363845825195 13.00000095367432 C 13.07338905334473 13.00000095367432 13.33163928985596 12.6516809463501 13.41854858398438 12.50193119049072 C 13.50545883178711 12.35217094421387 13.67975902557373 11.95513153076172 13.42188930511475 11.50386047363281 L 8.86824893951416 3.534991264343262 C 8.608379364013672 3.080230712890625 8.17448902130127 3.031130790710449 7.999999046325684 3.031130790710449 M 7.999999046325684 2.031128883361816 C 8.676296234130859 2.031128883361816 9.352594375610352 2.367035865783691 9.736488342285156 3.038850784301758 L 14.29012870788574 11.00772094726562 C 15.0520191192627 12.34103107452393 14.08928871154785 14.00000095367432 12.55363845825195 14.00000095367432 L 3.446358680725098 14.00000095367432 C 1.910709381103516 14.00000095367432 0.9479789733886719 12.34103107452393 1.709869384765625 11.00772094726562 L 6.263508796691895 3.038850784301758 C 6.647403717041016 2.367035865783691 7.323701858520508 2.031128883361816 7.999999046325684 2.031128883361816 Z" stroke="none" fill="rgba(255,255,255,0.51)"/>
      </g>
    </g>
    <g id="dot-3">
      <g id="Path_1205" data-name="Path 1205" transform="translate(684.101 5028) rotate(-45)" fill="none">
        <path d="M0,0H7V7H0Z" stroke="none"/>
        <path d="M 1 1 L 1 6 L 6 6 L 6 1 L 1 1 M 0 0 L 7 0 L 7 7 L 0 7 L 0 0 Z" stroke="none" fill="rgba(255,255,255,0.59)"/>
      </g>
    </g>
    <g id="dot-2">
      <g id="Path_1204" data-name="Path 1204" transform="translate(1214.101 5040) rotate(-45)" fill="none">
        <path d="M0,0H7V7H0Z" stroke="none"/>
        <path d="M 1 1 L 1 6 L 6 6 L 6 1 L 1 1 M 0 0 L 7 0 L 7 7 L 0 7 L 0 0 Z" stroke="none" fill="rgba(255,255,255,0.59)"/>
      </g>
    </g>
    <g id="dot-1">
      <g id="Path_1203" data-name="Path 1203" transform="translate(1334.062 4839.521) rotate(-45)" fill="none">
        <path d="M0,0H7V7H0Z" stroke="none"/>
        <path d="M 1 1 L 1 6 L 6 6 L 6 1 L 1 1 M 0 0 L 7 0 L 7 7 L 0 7 L 0 0 Z" stroke="none" fill="rgba(255,255,255,0.59)"/>
      </g>
    </g>
  </g>
</svg>
